<svg xmlns="http://www.w3.org/2000/svg" width="25" height="25.019" viewBox="0 0 25 25.019">
    <path id="icons8_multiply"
          d="M7.69,4a1.458,1.458,0,0,0-1.043.435L4.429,6.652a1.683,1.683,0,0,0,0,2.217l7.651,7.651L4.429,24.17a1.683,1.683,0,0,0,0,2.217L6.646,28.6a1.683,1.683,0,0,0,2.217,0l7.651-7.651L24.164,28.6a1.683,1.683,0,0,0,2.217,0L28.6,26.387a1.683,1.683,0,0,0,0-2.217l-7.651-7.651L28.6,8.869a1.683,1.683,0,0,0,0-2.217L26.381,4.435a1.683,1.683,0,0,0-2.217,0l-7.651,7.651L8.863,4.435A1.924,1.924,0,0,0,7.69,4Z"
          transform="translate(-4.014 -4)" fill="#ff0a0a"/>
</svg>