<svg xmlns="http://www.w3.org/2000/svg" width="70" height="70" viewBox="0 0 70 70">
    <g id="Group_55" data-name="Group 55" transform="translate(-3541 427)">
        <circle id="Ellipse_26" data-name="Ellipse 26" cx="35" cy="35" r="35" transform="translate(3541 -427)"
                fill="#fff"/>
        <path id="icons8_cancel"
              d="M35.188.187a35,35,0,1,0,35,35A35.007,35.007,0,0,0,35.188.187Zm15.793,47-3.8,3.788a1.784,1.784,0,0,1-2.518,0L35.188,41.5,25.712,50.98a1.774,1.774,0,0,1-2.518-.011l-3.8-3.777a1.817,1.817,0,0,1,0-2.529l9.476-9.476-9.465-9.465a1.8,1.8,0,0,1,0-2.529l3.788-3.788a1.778,1.778,0,0,1,2.529,0l9.465,9.465,9.476-9.465a1.765,1.765,0,0,1,2.518,0l3.8,3.777a1.81,1.81,0,0,1,0,2.54L41.5,35.188l9.476,9.476A1.817,1.817,0,0,1,50.98,47.192Z"
              transform="translate(3540.813 -427.188)" fill="#ff0a0a"/>
    </g>
</svg>