<svg id="Component_6_1" data-name="Component 6 – 1" xmlns="http://www.w3.org/2000/svg" width="33.63" height="33.63"
     viewBox="0 0 33.63 33.63">
    <path id="icons8_help"
          d="M18,1.188A16.815,16.815,0,1,0,34.818,18,16.816,16.816,0,0,0,18,1.188Zm-.078,27.085a2.4,2.4,0,1,1,2.4-2.4A2.376,2.376,0,0,1,17.925,28.273Zm3.531-10.865-1.563,1.357a2.127,2.127,0,0,0-.979,2.174H17.163V20.3c0-3.086,2.947-3.62,2.947-8.18,0-1.752-.573-2.552-2.03-2.552-1.34,0-1.941.656-1.746,2.235.117,1-.884,1.39-1.54,1.39a1.574,1.574,0,0,1-1.368-1.74c0-1.7,1.779-3.475,4.877-3.475,3.014,0,5.644,1.362,5.644,4.643C23.952,14.649,23.207,15.878,21.456,17.407Z"
          transform="translate(-1.188 -1.188)" fill="#008595"/>
</svg>
