<svg xmlns="http://www.w3.org/2000/svg" width="50" height="44.942" viewBox="0 0 50 44.942">
    <path id="icons8_attach"
          d="M38.5,2.064a7.994,7.994,0,0,0-2.275.43c-2.952.992-5.481,3.267-7.994,5.78L12,24.508A9.717,9.717,0,0,0,9.111,29.8,7.34,7.34,0,0,0,17.6,38.1a9.8,9.8,0,0,0,5.165-2.829L40.594,17.437a1.968,1.968,0,1,0-2.767-2.767L19.995,32.5a6.254,6.254,0,0,1-3.075,1.722,2.975,2.975,0,0,1-2.952-.922,2.969,2.969,0,0,1-.984-2.89,6.079,6.079,0,0,1,1.783-3.136L31,11.042c2.375-2.375,4.658-4.189,6.457-4.8s3.09-.477,5.165,1.6c1.553,1.545,3.2,2.944,3.628,4.366a3.607,3.607,0,0,1-.246,2.583,14.608,14.608,0,0,1-3.382,4.673L24.791,37.3c-3.021,3.021-5.88,5.042-8.424,5.6s-4.958-.038-8.117-3.2-4.266-6.226-3.935-9.408,2.267-6.633,5.842-10.208C14.476,15.761,23.5,7.475,23.5,7.475a1.968,1.968,0,1,0-2.644-2.89S11.824,12.763,7.327,17.252C3.346,21.234.84,25.508.379,29.92s1.322,8.762,5.1,12.544,7.856,5.134,11.683,4.3,7.141-3.451,10.392-6.7L45.391,22.233a18.3,18.3,0,0,0,4.3-5.965A7.96,7.96,0,0,0,50,11.042C49.088,8,46.621,6.3,45.391,5.077a10,10,0,0,0-4.55-2.706A8.247,8.247,0,0,0,38.5,2.064Z"
          transform="translate(-0.307 -2.061)"/>
</svg>
