<svg xmlns="http://www.w3.org/2000/svg" width="50" height="50.003" viewBox="0 0 50 50.003">
    <path id="icons8_development_skill"
          d="M34.247,3l-.086.533A23.993,23.993,0,0,0,30.272,3c-2.557,0-6.369.241-6.991.335-9.093,1.411-14.106,7.3-15.321,17.988L3.384,29.212a2.947,2.947,0,0,0,1.183,4.061L8.018,35,9.137,43.2a6.125,6.125,0,0,0,6.208,5.244l3.564,0V53H41.635l.02-7.28A16.039,16.039,0,0,1,44.84,36.2,35.222,35.222,0,0,0,47.6,30.9l2.748-2.748-2.805-3.9a11.719,11.719,0,0,0,.719-1.74L53,21.681V16.068l-4.738-.775a11.78,11.78,0,0,0-.721-1.742L50.3,9.619,46.329,5.65,42.443,8.442a11.7,11.7,0,0,0-1.756-.73L39.862,3ZM36.18,5.269h1.773l.728,4.161.717.18a9.482,9.482,0,0,1,2.619,1.09l.641.388,3.429-2.466,1.254,1.254L44.9,13.352l.379.632a9.538,9.538,0,0,1,1.081,2.606l.182.726L50.726,18V19.77l-4.184.737-.178.717a9.483,9.483,0,0,1-1.079,2.606l-.384.641,2.475,3.438-1.254,1.254-3.471-2.437-.635.386A9.559,9.559,0,0,1,39.4,28.206l-.71.18-.737,4.159H36.178l-.69-4.148-.726-.18a9.527,9.527,0,0,1-2.628-1.085L31.5,26.75l-3.444,2.412L26.8,27.907,29.24,24.5l-.388-.639a9.482,9.482,0,0,1-1.094-2.634L27.58,20.5l-4.126-.73v-1.78l4.126-.688.182-.721a9.577,9.577,0,0,1,1.094-2.639l.384-.632-2.406-3.44L28.09,8.618l3.418,2.441.639-.384A9.485,9.485,0,0,1,34.773,9.6l.73-.178Zm.91,7.956a5.682,5.682,0,1,0,5.682,5.682A5.7,5.7,0,0,0,37.09,13.225Zm0,2.273a3.409,3.409,0,1,1-3.409,3.409A3.392,3.392,0,0,1,37.09,15.5Z"
          transform="translate(-2.999 -2.996)"/>
</svg>
