<svg xmlns="http://www.w3.org/2000/svg" width="45" height="45" viewBox="0 0 45 45">
    <path id="icons8_below"
          d="M23.5,1A22.5,22.5,0,1,0,46,23.5,22.562,22.562,0,0,0,23.5,1ZM34,25.748a59.5,59.5,0,0,1-9.756,10.686c-.183,0-.374.191-.747.191s-.564-.191-.937-.374a69.15,69.15,0,0,1-9.749-10.686,1.14,1.14,0,0,1,0-1.5,2.753,2.753,0,0,1,1.311-.564H19s.556-11.44.938-12A5.686,5.686,0,0,1,23.5,10.375,9.561,9.561,0,0,1,26.877,11.5s-.379,9,1.12,12,4.878,0,4.878,0A1.036,1.036,0,0,1,34,24.247,1.14,1.14,0,0,1,34,25.748Z"
          transform="translate(-1 -1)" fill="#008595"/>
</svg>
