<svg xmlns="http://www.w3.org/2000/svg" width="45" height="45" viewBox="0 0 45 45">
    <path id="icons8_circled_down_left"
          d="M23.5,1A22.5,22.5,0,1,0,46,23.5,22.562,22.562,0,0,0,23.5,1Zm5.816,31.5a63.106,63.106,0,0,1-14.443.747.965.965,0,0,1-.747-.374,1.415,1.415,0,0,1-.374-.747A63.281,63.281,0,0,1,14.5,17.685c.19-.557.374-.937.937-1.121a1.153,1.153,0,0,1,1.311.374l3.376,3.377s8.628-7.69,9.192-7.69c.937-.183,2.431.754,3.369,1.692s1.692,2.432,1.5,3.186c-.183.564-7.5,9.375-7.5,9.375l3.376,3.377a1.237,1.237,0,0,1,.373,1.311A1.93,1.93,0,0,1,29.316,32.5Z"
          transform="translate(-1 -1)" fill="#008595"/>
</svg>
