<svg xmlns="http://www.w3.org/2000/svg" width="180" height="180" viewBox="0 0 180 180">
    <path id="icons8_male_user_2"
          d="M90,0a90,90,0,1,0,90,90A90.1,90.1,0,0,0,90,0Zm0,13.846a76.11,76.11,0,0,1,56.25,127.428c-5.192-9.547-20.472-17.389-36.779-20.769,0,0-7.788-2.109-4.327-9.736,4.841-6.22,7.788-13.062,7.788-15.144,0,0,6.869-5.544,7.572-13.846.7-7.626-1.515-8.437-1.515-8.437,2.758-9.006,3.516-42.891-17.956-38.726C97.572,27.692,74.856,22.2,64.471,40.889c-4.841,9.005-7,22.121-2.163,31.8,0,.7-1.46-.73-2.163,4.111,0,4.841,2.245,11.737,4.327,14.495a7.151,7.151,0,0,0,3.462,2.813,37.628,37.628,0,0,0,7.572,16.01c1.379,6.22-4.976,9.735-4.976,9.735C53.654,123.236,38.32,131.079,33.1,140.625A76.161,76.161,0,0,1,90,13.846Z"
          fill="#707070"/>
</svg>
