<svg xmlns="http://www.w3.org/2000/svg" width="55.81" height="55.64" viewBox="0 0 55.81 55.64">
    <path id="icons8_new_topic"
          d="M28.108.187C12.973.187.405,11.133.405,24.917c0,6.478,3.04,12.179,7.567,16.554-.177,2.508-1.436,4-3.176,5.473-.937.785-1.968,1.52-2.905,2.432A5.362,5.362,0,0,0,0,53.227a2.16,2.16,0,0,0,1.622,2.094c4.062,1.09,8.429.287,12.432-1.149a33.472,33.472,0,0,0,9.054-5.068,30.317,30.317,0,0,0,5,.473c15.135,0,27.7-10.887,27.7-24.662S43.243.187,28.108.187Zm0,4.324c13.074,0,23.378,9.274,23.378,20.405s-10.3,20.338-23.378,20.338a26.339,26.339,0,0,1-4.932-.405,2.143,2.143,0,0,0-1.824.405,30.5,30.5,0,0,1-8.716,4.865,21.844,21.844,0,0,1-6.351,1.216c.456-.363.811-.625,1.351-1.081,2.179-1.833,4.8-4.789,4.8-9.257a2.132,2.132,0,0,0-.743-1.622A19.054,19.054,0,0,1,4.73,24.917C4.73,13.785,15.034,4.512,28.108,4.512Zm0,6.216c-3.167,0-5.878,2.187-5.878,6.284a10.462,10.462,0,0,0,2.905,7.027,1.725,1.725,0,0,1-.743,2.432c-3.311,1.2-7.23,3.378-7.23,5.54v.811c0,2.939,5.667,3.581,10.946,3.581s10.946-.642,10.946-3.581v-.811c0-2.221-3.885-4.392-7.365-5.54-.161-.051-1.166-.524-.541-2.432a10.519,10.519,0,0,0,2.838-7.027C33.986,12.915,31.275,10.728,28.108,10.728Z"
          transform="translate(0 -0.188)"/>
</svg>
