<svg xmlns="http://www.w3.org/2000/svg" width="40" height="43.333" viewBox="0 0 40 43.333">
    <path id="icons8_pdf"
          d="M13.333,0A6.688,6.688,0,0,0,6.667,6.667V18.333h-5A1.668,1.668,0,0,0,0,20V30a1.668,1.668,0,0,0,1.667,1.667h5v5a6.688,6.688,0,0,0,6.667,6.667h20A6.688,6.688,0,0,0,40,36.667V13.333c0-1.836-1.647-3.522-4.479-6.354-.5-.332-.853-.814-1.354-1.146-.332-.5-.814-.853-1.146-1.354C30.189,1.647,28.5,0,26.667,0Zm0,3.333H25.521c1.165.332,1.146,1.842,1.146,3.177v5a1.572,1.572,0,0,0,1.667,1.667h5c1.667,0,3.333,0,3.333,1.667V36.51a3.34,3.34,0,0,1-3.333,3.333h-20A3.34,3.34,0,0,1,10,36.51V31.667H28.333A1.668,1.668,0,0,0,30,30V20a1.668,1.668,0,0,0-1.667-1.667H10V6.667A3.34,3.34,0,0,1,13.333,3.333ZM4.687,20c.456-.02.957,0,1.458,0a4.857,4.857,0,0,1,2.865.833A2.817,2.817,0,0,1,10,23.177a4.226,4.226,0,0,1-.99,2.5,4,4,0,0,1-2.865.99H5.833v3.177a.317.317,0,0,1-.312.313H3.49a.5.5,0,0,0-.156-.312V20.521c0-.169.156-.2.156-.365A6.018,6.018,0,0,1,4.687,20Zm7.135,0h2.656a5.778,5.778,0,0,1,3.7.99,4.825,4.825,0,0,1,1.51,3.854,5.326,5.326,0,0,1-1.51,4.01,5.929,5.929,0,0,1-4.167,1.3A7.07,7.07,0,0,1,11.823,30a.5.5,0,0,1-.156-.313V20.313C11.667,20.143,11.823,20.169,11.823,20Zm10,0h5.156a.367.367,0,0,1,.365.312v1.667a.415.415,0,0,1-.365.365H24.01v1.667h2.812a.367.367,0,0,1,.365.313V25.99a.415.415,0,0,1-.365.365H24.01v3.49a.367.367,0,0,1-.365.313H21.823a.317.317,0,0,1-.312-.312V20.313A.317.317,0,0,1,21.823,20ZM5.677,22.188v2.292H5.99a1.219,1.219,0,0,0,1.354-1.3c.169-.833-.534-.99-1.2-.99Zm8.333,0v5.833h.313a2.055,2.055,0,0,0,1.823-.677A3.28,3.28,0,0,0,16.823,25c.332-1.836-.469-2.812-2.135-2.812Z"/>
</svg>
