<svg xmlns="http://www.w3.org/2000/svg" width="25.629" height="25.636" viewBox="0 0 25.629 25.636">
    <path id="icons8_pencil_2"
          d="M20.094.25a2.247,2.247,0,0,0-1.625.656l-1,1.031,6.594,6.625,1-1.031a2.32,2.32,0,0,0,0-3.281L21.75.938A2.364,2.364,0,0,0,20.094.25Zm-3.75,2.594-1.562,1.5,6.875,6.875L23.25,9.75ZM13.781,5.438,2.969,16.156a.979.979,0,0,0-.5.625L.156,24.625a.975.975,0,0,0,1.219,1.219l7.844-2.312A.979.979,0,0,0,10,22.875L20.656,12.313,18,9.656h-.031L16.188,7.844Zm-9.625,12.5.531.531,2.594.219.125,2.531.656.656L3.844,23.094l-.937-.937Z"
          transform="translate(-0.114 -0.25)" fill="#fff"/>
</svg>
