<svg xmlns="http://www.w3.org/2000/svg" width="38.493" height="38.493" viewBox="0 0 38.493 38.493">
    <path id="Icon_awesome-plus-circle" data-name="Icon awesome-plus-circle"
          d="M20.653,1.406A19.247,19.247,0,1,0,39.9,20.653,19.243,19.243,0,0,0,20.653,1.406Zm11.175,21.42a.934.934,0,0,1-.931.931h-7.14V30.9a.934.934,0,0,1-.931.931H18.48a.934.934,0,0,1-.931-.931v-7.14h-7.14a.934.934,0,0,1-.931-.931V18.48a.934.934,0,0,1,.931-.931h7.14v-7.14a.934.934,0,0,1,.931-.931h4.346a.934.934,0,0,1,.931.931v7.14H30.9a.934.934,0,0,1,.931.931Z"
          transform="translate(-1.406 -1.406)" fill="#fff"/>
</svg>
