<svg xmlns="http://www.w3.org/2000/svg" width="14.155" height="14.155" viewBox="0 0 14.155 14.155">
    <path id="Icon_awesome-plus-circle" data-name="Icon awesome-plus-circle"
          d="M8.484,1.406a7.078,7.078,0,1,0,7.078,7.078A7.076,7.076,0,0,0,8.484,1.406Zm4.11,7.877a.343.343,0,0,1-.342.342H9.625v2.626a.343.343,0,0,1-.342.342h-1.6a.343.343,0,0,1-.342-.342V9.625H4.717a.343.343,0,0,1-.342-.342v-1.6a.343.343,0,0,1,.342-.342H7.342V4.717a.343.343,0,0,1,.342-.342h1.6a.343.343,0,0,1,.342.342V7.342h2.626a.343.343,0,0,1,.342.342Z"
          transform="translate(-1.406 -1.406)" fill="#046b00"/>
</svg>
