<svg xmlns="http://www.w3.org/2000/svg" width="60" height="46.154" viewBox="0 0 60 46.154">
  <path id="icons8_workspace" d="M43.846,3a6.923,6.923,0,1,1-6.923,6.923A6.925,6.925,0,0,1,43.846,3ZM3.822,3.361A1.089,1.089,0,0,1,4.9,3.937l14.5,28.63a1.035,1.035,0,0,1-.5,1.442l-3.317,1.442a1.08,1.08,0,0,1-1.442-.577L8.51,22.183l.36,15.144H20.553c.2-1.154,1.145-2.01,4.255-1.731,1.911.171,10.6.793,10.6.793.793-1.19,7.527-13.72,8.366-15,.82-1.253,1.55-2.236,3.317-2.236h3.75c.919,0,3.939,1.226,6.635,11.034C59.549,37.751,60,49.154,60,49.154H45l-.865-13.99s-3.723,5.517-4.4,6.274c-1.019,1.154-1.2,1.5-2.452,1.3-.388-.063-2.731-.388-4.976-.721v2.524H0V39.923H4.255a1.953,1.953,0,0,1-.072-.5L6.058,16.63,1.226,5.813A1.187,1.187,0,0,1,1.8,4.3L3.389,3.5A1.117,1.117,0,0,1,3.822,3.361Z" transform="translate(0 -3)"/>
</svg>
