<svg xmlns="http://www.w3.org/2000/svg" width="45.69" height="45.69" viewBox="0 0 45.69 45.69">
    <path id="icons8_search_1"
          d="M17.638.187A17.45,17.45,0,1,0,28.419,31.309l1.556,1.556a3.278,3.278,0,0,0,.611,3.835l8.169,8.225a3.266,3.266,0,0,0,4.613,0l1.556-1.556a3.266,3.266,0,0,0,0-4.613L36.7,30.586a3.234,3.234,0,0,0-3.835-.556l-1.556-1.556A17.444,17.444,0,0,0,17.638.187Zm0,3.223A14.227,14.227,0,1,1,3.411,17.638,14.227,14.227,0,0,1,17.638,3.411Zm-9,9.725a9.735,9.735,0,0,0,8.28,14.838A9.837,9.837,0,0,0,22.528,26.2a12.106,12.106,0,0,1-1.334.056,12.529,12.529,0,0,1-12.56-12.56C8.635,13.5,8.628,13.324,8.635,13.136Z"
          transform="translate(-0.188 -0.188)"/>
</svg>
