<svg xmlns="http://www.w3.org/2000/svg" width="50" height="50.225" viewBox="0 0 50 50.225">
    <path id="icons8_submit_progress"
          d="M26,1a25.245,25.245,0,0,0-4.541.409l.752,4.12a20.927,20.927,0,1,1,0,41.167l-.752,4.12A25.115,25.115,0,1,0,26,1ZM15.09,3.5l-.454.208-.074.037-.069.041-1.561.875-.069.041-.065.045-1.484.989-.065.045-.065.049-1.394,1.1-.065.049-.057.057-1.308,1.2L8.3,8.292l-.057.057-.429.462,3.061,2.853.392-.421,1.157-1.059,1.292-1.018,1.369-.916,1.4-.785.36-.168Zm10.921,8.085a3.862,3.862,0,0,0-2.747.936c-.268.379-.777,17.87-.777,17.87H18.781a1.064,1.064,0,0,0-.94.56,1.053,1.053,0,0,0,.057,1.087,54.729,54.729,0,0,0,7.459,8.436,1.06,1.06,0,0,0,1.316,0,54.374,54.374,0,0,0,7.459-8.436,1.059,1.059,0,0,0-.883-1.647H29.531S28.873,12.9,28.6,12.522A3.459,3.459,0,0,0,26.011,11.586ZM3.9,14.186l-.151.266-.041.069-.037.078L2.91,16.221l-.037.074-.029.078L2.2,18.065l-.029.078-.025.078-.507,1.753-.025.078-.016.086-.372,1.8-.016.086-.012.082-.082.666,4.157.511.074-.6.335-1.623.458-1.586.572-1.508.707-1.5.114-.2ZM5.268,28.969l-4.161.454.029.27.008.078.016.074.294,1.623.016.074.016.073L1.9,33.2l.02.073.025.069.515,1.533.02.074.029.066L3.127,36.5l.029.065.033.066.654,1.312,3.744-1.876-.629-1.251-.572-1.382L6.372,33.4l-.429-1.292-.38-1.467-.274-1.492Zm5.616,11.608L7.794,43.4l.2.225.049.053.049.049L9.245,44.82l.049.049.057.049,1.218,1.01.057.049.057.041,1.288.928.057.045.061.037,1.353.838.061.041.065.033,1.414.748,1.954-3.7-1.353-.719L14.342,43.5l-1.161-.842-1.046-.862-.02-.021-1.059-1.005Z"
          transform="translate(-1.107 -1)"/>
</svg>
