<svg xmlns="http://www.w3.org/2000/svg" width="22.7" height="24.541" viewBox="0 0 22.7 24.541">
  <path id="icons8_bell" d="M22.6.187A2.214,2.214,0,0,0,20.38,2.4c0,.041,0,.079,0,.12-2.428-1.111-6.655-.647-10.595,3.292-1.878,1.878-5.933,1.448-7.093,2.6s-.95,4.976,3.95,9.876,8.687,5.084,9.846,3.921.819-4.919,2.843-6.943c3.853-3.853,4.2-8.167,3.083-10.654.06,0,.12,0,.18,0a2.215,2.215,0,1,0,0-4.429Zm0,1.107A1.107,1.107,0,1,1,21.488,2.4,1.124,1.124,0,0,1,22.6,1.295ZM18.076,3.988a6.472,6.472,0,0,1,1.466.269c-2.982-.146-6.782,4.609-8.2,6.345a7.214,7.214,0,0,1-4.818,2.753,2.7,2.7,0,0,1-1.616-2.364s2.379.348,5.567-2.065C13.433,6.686,14.926,3.857,18.076,3.988ZM7.9,20.718a2.215,2.215,0,1,0,3.472,2.215A16.241,16.241,0,0,1,7.9,20.718Z" transform="translate(-2.11 -0.188)" fill="#fff"/>
</svg>
