<svg xmlns="http://www.w3.org/2000/svg" width="23.49" height="22.086" viewBox="0 0 23.49 22.086">
  <path id="icons8_home" d="M18.45,2.031a.923.923,0,0,0-.921.921V7.358L12.662,2.492a.947.947,0,0,0-1.325,0L.539,13.319a.916.916,0,0,0,1.3,1.3L12,4.45,22.194,14.644a.96.96,0,0,0,.662.288.9.9,0,0,0,.634-.288.913.913,0,0,0,0-1.3l-3.2-3.2v-7.2a.923.923,0,0,0-.921-.921ZM12,6.149,1.864,16.285v5.068a2.765,2.765,0,0,0,2.764,2.764H19.372a2.765,2.765,0,0,0,2.764-2.764V16.285ZM10.157,14.9h3.686a.923.923,0,0,1,.921.921v5.529a.923.923,0,0,1-.921.921H10.157a.923.923,0,0,1-.921-.921V15.824A.923.923,0,0,1,10.157,14.9Z" transform="translate(-0.27 -2.031)" fill="#fff"/>
</svg>
