<svg xmlns="http://www.w3.org/2000/svg" xmlns:xlink="http://www.w3.org/1999/xlink" viewBox="0 0 26 26" fill="#FFFFFF">
  <path d="M3 0C1.34375 0 0 1.34375 0 3L0 19C0 20.65625 1.34375 22 3 22L8 22L8 20L3 20C2.449219 20 2 19.550781 2 19L2 7L24 7L24 19C24 19.550781 23.550781 20 23 20L17 20L17 22L23 22C24.65625 22 26 20.65625 26 19L26 3C26 1.34375 24.65625 0 23 0 Z M 2.65625 2.9375L3.375 2.9375C3.773438 2.9375 4.09375 3.257813 4.09375 3.65625L4.09375 4.34375L4.0625 4.34375C4.0625 4.742188 3.742188 5.0625 3.34375 5.0625L2.65625 5.0625C2.257813 5.0625 1.9375 4.742188 1.9375 4.34375L1.9375 3.65625C1.9375 3.257813 2.257813 2.9375 2.65625 2.9375 Z M 5.65625 2.9375L6.375 2.9375C6.773438 2.9375 7.09375 3.257813 7.09375 3.65625L7.09375 4.34375L7.0625 4.34375C7.0625 4.742188 6.742188 5.0625 6.34375 5.0625L5.65625 5.0625C5.257813 5.0625 4.9375 4.742188 4.9375 4.34375L4.9375 3.65625C4.9375 3.257813 5.257813 2.9375 5.65625 2.9375 Z M 8 3L24 3L24 5L8 5 Z M 13.03125 12.0625C12.910156 12.0625 12.78125 12.09375 12.6875 12.1875L8.1875 17.1875C8.097656 17.277344 8.03125 17.410156 8.03125 17.53125C8.03125 17.59375 8.039063 17.660156 8.0625 17.71875C8.136719 17.894531 8.339844 18 8.53125 18L11 18C11 22.1875 10.269531 24.460938 5.5 25.84375C13.484375 25.84375 15.0625 21.226563 15.0625 18L17.5 18C17.691406 18 17.832031 17.894531 17.90625 17.71875C17.980469 17.542969 17.949219 17.324219 17.8125 17.1875L13.34375 12.1875C13.25 12.09375 13.152344 12.0625 13.03125 12.0625Z" fill="#FFFFFF" />
</svg>