<svg xmlns="http://www.w3.org/2000/svg" xmlns:xlink="http://www.w3.org/1999/xlink" viewBox="0 0 26 26" fill="#FFFFFF">
  <path d="M11 0.15625C7.824219 0.15625 5.09375 2.296875 5.09375 6.40625C5.09375 9.089844 6.351563 11.816406 8 13.5C8.640625 15.183594 7.488281 15.820313 7.25 15.90625C3.925781 17.109375 0.03125 19.304688 0.03125 21.46875L0.03125 22.28125C0.03125 25.058594 5.113281 25.796875 10.125 25.875C10.054688 25.488281 10.042969 25.078125 10.15625 24.6875L11.40625 20.46875C11.535156 20.023438 11.800781 19.632813 12.15625 19.3125L15.3125 16.15625C15.058594 16.0625 14.8125 15.988281 14.5625 15.90625C14.402344 15.855469 13.402344 15.410156 14.03125 13.5C15.667969 11.8125 16.90625 9.078125 16.90625 6.40625C16.90625 2.300781 14.175781 0.15625 11 0.15625 Z M 22.8125 12.125C22.492188 12.125 22.179688 12.257813 21.9375 12.5L21.40625 13.03125L24.96875 16.59375L25.5 16.0625C25.984375 15.578125 25.992188 14.773438 25.5 14.28125L23.71875 12.5C23.472656 12.253906 23.132813 12.125 22.8125 12.125 Z M 20.8125 13.53125L19.96875 14.34375L23.65625 18.03125L24.53125 17.25 Z M 19.40625 14.9375L13.5 20.78125C13.417969 20.847656 13.34375 20.921875 13.3125 21.03125L12.09375 25.25C12.039063 25.4375 12.082031 25.644531 12.21875 25.78125C12.320313 25.882813 12.457031 25.9375 12.59375 25.9375C12.644531 25.9375 12.671875 25.921875 12.71875 25.90625L16.96875 24.6875C17.070313 24.660156 17.125 24.574219 17.1875 24.5L23.125 18.625L20.71875 16.21875 Z M 14.21875 21.65625L14.53125 21.9375L15.90625 22.0625L16 23.4375L16.34375 23.78125L14.0625 24.4375L13.5625 23.9375Z" fill="#FFFFFF" />
</svg>