<svg xmlns="http://www.w3.org/2000/svg" width="23.69" height="23.69" viewBox="0 0 23.69 23.69">
  <path id="icons8_search" d="M9.235.187a9.048,9.048,0,1,0,5.59,16.136l.807.807a1.7,1.7,0,0,0,.317,1.988l4.236,4.265a1.694,1.694,0,0,0,2.392,0l.807-.807a1.694,1.694,0,0,0,0-2.392l-4.265-4.236a1.677,1.677,0,0,0-1.988-.288l-.807-.807A9.045,9.045,0,0,0,9.235.187Zm0,1.671A7.377,7.377,0,1,1,1.859,9.235,7.377,7.377,0,0,1,9.235,1.859ZM4.567,6.9a5.047,5.047,0,0,0,4.293,7.693,5.1,5.1,0,0,0,2.91-.922,6.279,6.279,0,0,1-.692.029A6.5,6.5,0,0,1,4.567,7.189C4.567,7.092,4.564,7,4.567,6.9Z" transform="translate(-0.188 -0.188)" fill="#fff"/>
</svg>
