<svg xmlns="http://www.w3.org/2000/svg" width="20" height="21.818" viewBox="0 0 20 21.818">
    <path id="icons8_future"
          d="M12,0V1.818a10,10,0,1,0,10,10,9.634,9.634,0,0,0-2.812-6.9L17.909,6.193a7.752,7.752,0,0,1,2.273,5.625A8.182,8.182,0,1,1,12,3.636V5.455l4.545-2.727Zm1.9,5.966-2.273,4.545a1.347,1.347,0,0,0-.994,1.307A1.364,1.364,0,0,0,12,13.182h.057l2.926,2.926L16.29,14.8l-2.926-2.926v-.057a1.378,1.378,0,0,0-.114-.511l2.3-4.545Z"
          transform="translate(-2)" fill="#707070"/>
</svg>
