<svg xmlns="http://www.w3.org/2000/svg" width="32" height="32" viewBox="0 0 32 32">
    <g id="shapes-and-symbols" transform="translate(0 0)">
        <path id="Path_4" data-name="Path 4"
              d="M31.743,13.038A.258.258,0,0,1,32,13.3V16A16,16,0,1,1,27.126,4.5a.258.258,0,0,1,0,.369L23.3,8.7a.257.257,0,0,1-.359,0,10.075,10.075,0,1,0,2.687,10.261H16.258A.258.258,0,0,1,16,18.7V13.3a.258.258,0,0,1,.258-.258H31.743Z"
              transform="translate(0 0)" fill="#2196f3"/>
        <g id="Group_3" data-name="Group 3" transform="translate(15.033 13.038)">
            <path id="Path_5" data-name="Path 5"
                  d="M257.24,208.612h-1.931a.258.258,0,0,1,.258.258v2.7a15.987,15.987,0,0,1-15.035,15.971q.424.025.854.028a15.987,15.987,0,0,0,16.113-16v-2.7A.258.258,0,0,0,257.24,208.612Z"
                  transform="translate(-240.531 -208.612)" fill="#1e88e5"/>
        </g>
        <path id="Path_6" data-name="Path 6"
              d="M36.671,11.78,31.812,8.269A16,16,0,0,1,56.95,4.5a.258.258,0,0,1,0,.369L53.128,8.7a.257.257,0,0,1-.358.005,10.078,10.078,0,0,0-16.1,3.079Z"
              transform="translate(-29.824 0)" fill="#f44336"/>
        <path id="Path_7" data-name="Path 7"
              d="M87.115,99.62l1.4,1.014a10.082,10.082,0,0,1,8.1-5.8l.081-.009q-.476-.045-.964-.046A10.046,10.046,0,0,0,87.115,99.62Z"
              transform="translate(-81.67 -88.853)" fill="#e53935"/>
        <path id="Path_8" data-name="Path 8"
              d="M250.705,4.5a.258.258,0,0,1,0,.369L247.6,7.975a10.117,10.117,0,0,1,.853.726.257.257,0,0,0,.359,0l3.826-3.826a.258.258,0,0,0,0-.369A15.951,15.951,0,0,0,241.511,0c-.324,0-.646.011-.966.03A15.949,15.949,0,0,1,250.705,4.5Z"
              transform="translate(-225.511 0)" fill="#e53935"/>
        <path id="Path_9" data-name="Path 9"
              d="M53.031,323.217A16,16,0,0,1,26.98,319.5l4.961-3.4a10.078,10.078,0,0,0,16.231,3.607Z"
              transform="translate(-25.294 -296.344)" fill="#4caf50"/>
        <path id="Path_10" data-name="Path 10"
              d="M84.413,316.1l-1.463,1a10.075,10.075,0,0,0,8.884,5.318c.325,0,.646-.016.964-.046A10.085,10.085,0,0,1,84.413,316.1Z"
              transform="translate(-77.766 -296.345)" fill="#43a047"/>
        <path id="Path_11" data-name="Path 11"
              d="M241.549,422.206a15.956,15.956,0,0,0,11.737-5.126l-1.19-.86a15.972,15.972,0,0,1-11.51,5.957Q241.064,422.206,241.549,422.206Z"
              transform="translate(-225.549 -390.206)" fill="#43a047"/>
        <path id="Path_12" data-name="Path 12"
              d="M5.924,140.037a10.046,10.046,0,0,0,.724,3.756l-4.961,3.4a16.025,16.025,0,0,1,.3-14.887l4.859,3.511a10.035,10.035,0,0,0-.924,4.22Z"
              transform="translate(0 -124.037)" fill="#ffc107"/>
        <path id="Path_13" data-name="Path 13"
              d="M65.064,182.257l1.463-1a10.1,10.1,0,0,1,.2-7.976l-1.4-1.014a10.124,10.124,0,0,0-.26,9.992Z"
              transform="translate(-59.879 -161.498)" fill="#ffb300"/>
    </g>
</svg>
