<svg xmlns="http://www.w3.org/2000/svg" width="25.692" height="25.692" viewBox="0 0 25.692 25.692">
    <path id="icons8_search"
          d="M16.067.187A9.813,9.813,0,1,1,10,17.688l-.875.875a1.843,1.843,0,0,1-.344,2.156L4.192,25.344a1.837,1.837,0,0,1-2.594,0l-.875-.875a1.837,1.837,0,0,1,0-2.594l4.625-4.594A1.819,1.819,0,0,1,7.5,16.969l.875-.875A9.809,9.809,0,0,1,16.067.187Zm0,1.813a8,8,0,1,0,8,8A8,8,0,0,0,16.067,2ZM21.13,7.469a5.474,5.474,0,0,1-4.656,8.344,5.532,5.532,0,0,1-3.156-1,6.81,6.81,0,0,0,.75.031A7.045,7.045,0,0,0,21.13,7.781C21.13,7.676,21.134,7.574,21.13,7.469Z"
          transform="translate(-0.188 -0.188)" fill="#fff"/>
</svg>
