<svg xmlns="http://www.w3.org/2000/svg" width="562.631" height="564.315" viewBox="0 0 562.631 564.315">
    <g id="عکس_کنار_صفحه" data-name="عکس کنار صفحه" transform="translate(0 0)">
        <path id="Path_1" data-name="Path 1"
              d="M303.357,694.54,308.312,675a253.75,253.75,0,0,1,26.923-9.66l.626,9.082,2.536-10.006c11.346-3.243,19.065-4.67,19.065-4.67s-10.424,39.648-32.295,69.96l-25.481,4.476,19.8,2.854a102.667,102.667,0,0,1-8.852,9.383c-31.812,29.529-67.245,43.077-79.142,30.26s4.249-47.144,36.061-76.669c9.862-9.154,22.251-16.5,34.652-22.283Z"
              transform="translate(205.169 -219.154)" fill="#7dc02f" opacity="0.35"/>
        <path id="Path_2" data-name="Path 2"
              d="M346.889,659l-5.86-19.29a253.756,253.756,0,0,1,18.053-22.186l5.23,7.452-3-9.877c8.038-8.638,13.908-13.85,13.908-13.85s11.568,39.329,8.517,76.582l-19.5,17,18.425-7.789a102.659,102.659,0,0,1-2.73,12.61c-11.969,41.722-35.3,71.635-52.107,66.813s-20.732-42.553-8.762-84.275c3.71-12.934,10.519-25.626,18.146-36.986Z"
              transform="translate(114.512 -205.6)" fill="#7dc02f" opacity="0.35"/>
        <path id="Path_22" data-name="Path 22"
              d="M375.962,210.149h3.091V125.472a49.01,49.01,0,0,1,49.01-49.01h179.4a49.01,49.01,0,0,1,49.01,49.01V590.021a49.01,49.01,0,0,1-49.01,49.01h-179.4a49.01,49.01,0,0,1-49.01-49.01v-319.6h-3.091Z"
              transform="translate(-205.932 -76.462)" fill="#e6e6e6"/>
        <path id="Path_23" data-name="Path 23"
              d="M430.465,93.335h23.416a17.389,17.389,0,0,0,16.1,23.956H572.762a17.389,17.389,0,0,0,16.1-23.956h21.872a36.6,36.6,0,0,1,36.6,36.6V593.81a36.6,36.6,0,0,1-36.6,36.6H430.465a36.6,36.6,0,0,1-36.6-36.6h0V129.935a36.6,36.6,0,0,1,36.6-36.6Z"
              transform="translate(-210.312 -80.59)" fill="#fff"/>
        <path id="Path_6" data-name="Path 6"
              d="M516.031,331.982a18.46,18.46,0,0,0-9.241-16,18.469,18.469,0,1,1,0,31.988A18.457,18.457,0,0,0,516.031,331.982Z"
              transform="translate(-182.772 -134.453)" fill="#ccc"/>
        <path id="Path_7" data-name="Path 7"
              d="M546.768,331.982a18.459,18.459,0,0,0-9.241-16,18.469,18.469,0,1,1,0,31.988,18.456,18.456,0,0,0,9.238-15.992Z"
              transform="translate(-236.727 -134.452)" fill="#ccc"/>
        <circle id="Ellipse_1" data-name="Ellipse 1" cx="18.469" cy="18.469" r="18.469"
                transform="translate(268.882 179.06)" fill="#7dc02f"/>
        <path id="Path_8" data-name="Path 8"
              d="M489.12,376.967H596.76a3.87,3.87,0,0,0,3.865-3.865V265.462a3.87,3.87,0,0,0-3.865-3.865H489.12a3.87,3.87,0,0,0-3.865,3.865V373.1A3.87,3.87,0,0,0,489.12,376.967ZM596.76,263.144a2.321,2.321,0,0,1,2.319,2.319V373.1a2.321,2.321,0,0,1-2.319,2.319H489.12A2.321,2.321,0,0,1,486.8,373.1V265.463a2.321,2.321,0,0,1,2.319-2.319Z"
              transform="translate(-232.635 -121.753)" fill="#ccc"/>
        <rect id="Rectangle_1" data-name="Rectangle 1" width="165.086" height="1.546"
              transform="translate(232.451 337.724)" fill="#ccc"/>
        <circle id="Ellipse_2" data-name="Ellipse 2" cx="5.214" cy="5.214" r="5.214"
                transform="translate(387.111 317.644)" fill="#f38e1a"/>
        <rect id="Rectangle_2" data-name="Rectangle 2" width="165.086" height="1.546"
              transform="translate(232.451 389.856)" fill="#ccc"/>
        <circle id="Ellipse_3" data-name="Ellipse 3" cx="5.214" cy="5.214" r="5.214"
                transform="translate(387.111 369.777)" fill="#f38e1a"/>
        <path id="Path_1-2" data-name="Path 1"
              d="M590.521,663.048h52.171a3.4,3.4,0,0,0,3.4-3.4V641.363a3.4,3.4,0,0,0-3.4-3.4H590.521a3.4,3.4,0,0,0-3.4,3.4v18.286a3.4,3.4,0,0,0,3.4,3.4Z"
              transform="translate(-355.049 -213.826)" fill="#046b00"/>
        <circle id="Ellipse_7" data-name="Ellipse 7" cx="5.214" cy="5.214" r="5.214"
                transform="translate(370.104 317.644)" fill="#f38e1a"/>
        <circle id="Ellipse_8" data-name="Ellipse 8" cx="5.214" cy="5.214" r="5.214"
                transform="translate(353.098 317.644)" fill="#f38e1a"/>
        <circle id="Ellipse_9" data-name="Ellipse 9" cx="5.214" cy="5.214" r="5.214"
                transform="translate(370.104 369.777)" fill="#f38e1a"/>
        <circle id="Ellipse_10" data-name="Ellipse 10" cx="5.214" cy="5.214" r="5.214"
                transform="translate(353.098 369.777)" fill="#f38e1a"/>
        <path id="Path_88" data-name="Path 88"
              d="M250.975,822.943H793.316c1.161,0,2.1-.413,2.1-.92s-.94-.921-2.1-.921H250.975c-1.16,0-2.1.412-2.1.921S249.815,822.943,250.975,822.943Z"
              transform="translate(-248.874 -258.628)" fill="#3f3d56"/>
        <g id="Group_2" data-name="Group 2" transform="translate(41.053 331.211)">
            <line id="Line_1" data-name="Line 1" x2="78.977" transform="translate(0 232.196)" fill="none"
                  stroke="#3f3d56" stroke-miterlimit="10" stroke-width="1"/>
            <path id="Path_72" data-name="Path 72"
                  d="M179.129,400.151s-4.436-1.312-5.388.116,1.3,11.774,1.3,11.774l9.775.594L181.4,404.02Z"
                  transform="translate(-131.161 -367.595)" fill="#2f2e41"/>
            <path id="Path_73" data-name="Path 73"
                  d="M105.221,579.347s8.894,19.526,2.045,18.913-9.508-18.913-9.508-18.913Z"
                  transform="translate(-91.45 -461.825)" fill="#a0616a"/>
            <path id="Path_74" data-name="Path 74" d="M234.431,573.08s-3.9,21.1,2.6,18.845,4.646-20.652,4.646-20.652Z"
                  transform="translate(-162.49 -457.593)" fill="#a0616a"/>
            <path id="Path_75" data-name="Path 75"
                  d="M160.169,386.523s-.1,9.814,3.68,10.325-2.147,5.725-2.147,5.725l-6.747,1.329-9.712-.715-4.294-5.521s7.565-3.578,4.294-14.721Z"
                  transform="translate(-114.093 -358.864)" fill="#a0616a"/>
            <path id="Path_76" data-name="Path 76"
                  d="M160.169,386.523s-.1,9.814,3.68,10.325-2.147,5.725-2.147,5.725l-6.747,1.329-9.712-.715-4.294-5.521s7.565-3.578,4.294-14.721Z"
                  transform="translate(-114.093 -358.864)" opacity="0.1"/>
            <path id="Path_77" data-name="Path 77"
                  d="M169.512,564.93s4.8,10.326,1.022,42.733c0,0,1.125,11.45.2,13.6s-8.485,31.283-8.485,31.283-9.712,2.147-11.041-4.294c0,0,1.329-9.2,1.227-10.632s2.147-17.073,2.147-17.073l-4.6-30.261-3.476,27.3s0,7.872-1.125,9.61,0,36.7,0,36.7,3.169,5.316-1.636,5.418-9.1-.1-9.508-3.476-.613-6.747-1.636-8.792-2.351-25.456-2.045-33.634-6.747-50.2-4.5-54.592S169.512,564.93,169.512,564.93Z"
                  transform="translate(-106.056 -454.258)" fill="#2f2e41"/>
            <circle id="Ellipse_20" data-name="Ellipse 20" cx="12.268" cy="12.268" r="12.268"
                    transform="translate(28.594 6.804)" fill="#a0616a"/>
            <path id="Path_78" data-name="Path 78"
                  d="M137.618,410.487s7.463,5.521,18.3,1.125c0,0,3.578-1.738,3.271-4.4s7.463,21.367,7.463,21.367l7.872,41.813-.409,17.073s-3.476-1.738-14.313,2.147-28.523-4.4-28.523-4.4l.613-43.858.613-25.558,1.636-5.623S134.96,408.647,137.618,410.487Z"
                  transform="translate(-109.023 -371.48)" fill="#f2f2f2"/>
            <path id="Path_79" data-name="Path 79"
                  d="M182.063,399.883s1.806-.293,3.544,2.467,5.827,4.5,5.827,4.5,9.917.613,11.348,5.929,5.009,12.575,6.747,25.967,5.214,34.759,5.725,36.5-.716,7.054.716,8.69-10.121,1.636-10.121,1.636-1.022-8.383-1.738-8.383-.511,5.623.2,9.712-5.214,0-5.214,0-4.6-18.708-9-35.577-6.952-26.171-6.134-29.954,3.067-14.619,1.431-15.642S182.063,399.883,182.063,399.883Z"
                  transform="translate(-135.646 -367.739)" fill="#2f2e41"/>
            <path id="Path_80" data-name="Path 80"
                  d="M118.825,399.874a111.371,111.371,0,0,0-9.418,6.259c-6.747,4.8-11.348,8.485-11.348,8.485s-2.658,2.045-4.294,14.21-5.316,43.653-3.885,47.64,1.942,6.338,1.431,8.69,10.734,2.249,10.939,1.738-.307-9.814.2-10.019,3.271,5.521,3.783,10.325,6.441,8.587,7.77,8.587,8.179-27.7,8.281-46.618-2.249-34.861-3.987-37.11S118.825,399.874,118.825,399.874Z"
                  transform="translate(-87.151 -367.739)" fill="#2f2e41"/>
            <path id="Path_81" data-name="Path 81"
                  d="M178.845,738.37s.818-2.249,3.68-1.533,4.8-1.84,4.8-1.84,1.533-.2.511,1.738-1.84,3.271-1.84,3.271,6.134,14.006,2.147,17.379a8.549,8.549,0,0,1-8.588,1.329s-4.5-3.169-4.294-11.552c0,0-.2-2.658-2.658-6.952s-4.294-10.837-1.329-12.063a16.055,16.055,0,0,1,3.728-1.272s-1.387,6.345,2.2,8.563Z"
                  transform="translate(-129.191 -539.165)" fill="#3f3d56"/>
            <path id="Path_82" data-name="Path 82"
                  d="M145.616,778.3s-2.454-4.6,1.636-5.112,8.485-.818,8.281,1.329-.716,5.418-.716,5.418l.716,2.351s.2,5.827.92,6.543,4.6,6.849-3.68,6.849-10.734-.92-10.019-2.862.92-11.552.92-11.552Z"
                  transform="translate(-114.977 -563.251)" fill="#3f3d56"/>
            <path id="Path_83" data-name="Path 83"
                  d="M143.709,341.587s5.725,1.533,8.69,2.147,2.658-1.125,2.658-1.125,3.885.511,3.68.1,1.636-2.556-.511-5.009-1.533-4.294-1.533-4.294h-1.84l-.511-.716h-2.863s-2.147-.818-7.77,0-13.29,1.022-13.9,4.4-3.783,7.565-2.658,9.508,7.565,9.917,8.179,13.29,3.478,4.123,3.374,2.011-2.966-9.473-.512-9.78S144.834,345.574,143.709,341.587Z"
                  transform="translate(-106.732 -332.329)" fill="#2f2e41"/>
        </g>
        <g id="Group_3" data-name="Group 3" transform="translate(147.937 216.034)">
            <path id="Path_84" data-name="Path 84"
                  d="M1029.3,86.584a10.934,10.934,0,0,1,9.425,6.59c2.357,5.7-.678,12.388-5.233,16.542s-10.407,6.528-15.723,9.65c-7.141,4.192-13.558,10.011-17.131,17.481s-3.953,16.723.247,23.859c3.9,6.624,10.987,10.588,17.747,14.244"
                  transform="translate(-983.097 -83.036)" fill="none" stroke="#3f3d56" stroke-miterlimit="10"
                  stroke-width="1"/>
            <ellipse id="Ellipse_21" data-name="Ellipse 21" cx="8.326" cy="4.044" rx="8.326" ry="4.044"
                     transform="translate(31.876)" fill="#046b00"/>
            <ellipse id="Ellipse_22" data-name="Ellipse 22" cx="8.326" cy="4.044" rx="8.326" ry="4.044"
                     transform="translate(25.215 26.643)" fill="#046b00"/>
            <ellipse id="Ellipse_23" data-name="Ellipse 23" cx="8.326" cy="4.044" rx="8.326" ry="4.044"
                     transform="translate(40.44 30.925)" fill="#046b00"/>
            <ellipse id="Ellipse_24" data-name="Ellipse 24" cx="8.326" cy="4.044" rx="8.326" ry="4.044"
                     transform="translate(16.652 53.285)" fill="#046b00"/>
            <ellipse id="Ellipse_25" data-name="Ellipse 25" cx="8.326" cy="4.044" rx="8.326" ry="4.044"
                     transform="translate(0 53.285)" fill="#046b00"/>
        </g>
    </g>
</svg>
