<svg id="عکس_کنار_صفحه" data-name="عکس کنار صفحه" xmlns="http://www.w3.org/2000/svg" width="650" height="467.374"
     viewBox="0 0 650 467.374">
    <line id="Line_1" data-name="Line 1" x2="104.554" transform="translate(0 466.874)" fill="none" stroke="#3f3d56"
          stroke-miterlimit="10" stroke-width="1"/>
    <rect id="Rectangle_5" data-name="Rectangle 5" width="464.196" height="314.293" rx="19.398"
          transform="translate(153.052 80.465)" fill="#f2f2f2"/>
    <rect id="Rectangle_6" data-name="Rectangle 6" width="464.196" height="314.293" rx="19.398"
          transform="translate(138.881 60.624)" fill="none" stroke="#3f3d56" stroke-miterlimit="10" stroke-width="1"/>
    <line id="Line_2" data-name="Line 2" x2="464.196" transform="translate(138.881 90.756)" fill="none" stroke="#3f3d56"
          stroke-miterlimit="10" stroke-width="1"/>
    <rect id="Rectangle_7" data-name="Rectangle 7" width="126.599" height="19.525" rx="7.093"
          transform="translate(416.328 161.4)" fill="#f38e1a" opacity="0.5"/>
    <rect id="Rectangle_8" data-name="Rectangle 8" width="175.097" height="15.746" rx="7.093"
          transform="translate(392.078 215.566)" fill="#f38e1a" opacity="0.5"/>
    <rect id="Rectangle_9" data-name="Rectangle 9" width="175.097" height="15.746" rx="7.093"
          transform="translate(392.078 258.396)" fill="#f38e1a" opacity="0.5"/>
    <rect id="Rectangle_10" data-name="Rectangle 10" width="175.097" height="15.746" rx="7.093"
          transform="translate(392.078 301.225)" fill="#f38e1a" opacity="0.5"/>
    <rect id="Rectangle_11" data-name="Rectangle 11" width="126.599" height="19.525" rx="7.093"
          transform="translate(422.626 155.101)" fill="none" stroke="#3f3d56" stroke-miterlimit="10" stroke-width="1"/>
    <rect id="Rectangle_12" data-name="Rectangle 12" width="175.097" height="15.746" rx="7.093"
          transform="translate(398.377 209.268)" fill="none" stroke="#3f3d56" stroke-miterlimit="10" stroke-width="1"/>
    <rect id="Rectangle_13" data-name="Rectangle 13" width="175.097" height="15.746" rx="7.093"
          transform="translate(398.377 252.097)" fill="none" stroke="#3f3d56" stroke-miterlimit="10" stroke-width="1"/>
    <rect id="Rectangle_14" data-name="Rectangle 14" width="175.097" height="15.746" rx="7.093"
          transform="translate(398.377 294.927)" fill="none" stroke="#3f3d56" stroke-miterlimit="10" stroke-width="1"/>
    <circle id="Ellipse_14" data-name="Ellipse 14" cx="9.448" cy="9.448" r="9.448" transform="translate(164.704 70.072)"
            fill="#f38e1a" opacity="0.5"/>
    <path id="Path_85" data-name="Path 85" d="M9.448,0A9.448,9.448,0,1,1,0,9.448,9.448,9.448,0,0,1,9.448,0Z"
          transform="translate(191.158 70.072)" fill="#f38e1a" opacity="0.5"/>
    <circle id="Ellipse_16" data-name="Ellipse 16" cx="9.448" cy="9.448" r="9.448" transform="translate(217.611 70.072)"
            fill="#f38e1a" opacity="0.5"/>
    <circle id="Ellipse_17" data-name="Ellipse 17" cx="9.448" cy="9.448" r="9.448" transform="translate(168.484 66.293)"
            fill="none" stroke="#3f3d56" stroke-miterlimit="10" stroke-width="1"/>
    <circle id="Ellipse_18" data-name="Ellipse 18" cx="9.448" cy="9.448" r="9.448" transform="translate(194.937 66.293)"
            fill="none" stroke="#3f3d56" stroke-miterlimit="10" stroke-width="1"/>
    <circle id="Ellipse_19" data-name="Ellipse 19" cx="9.448" cy="9.448" r="9.448" transform="translate(221.39 66.293)"
            fill="none" stroke="#3f3d56" stroke-miterlimit="10" stroke-width="1"/>
    <path id="Path_70" data-name="Path 70"
          d="M523.661,616.6a93.919,93.919,0,0,1-1.469-24.161s-8-35.137-14.291-38.415l0,0c-.1.124-3.15,4.128-3.538,16.517-.393,12.586-4.85,20.846-4.85,20.846s1.442,15.688.618,25.211Z"
          transform="translate(-238.119 -254.913)" fill="#7dc02f"/>
    <path id="Path_71" data-name="Path 71"
          d="M536.124,298.379H390.973A14.973,14.973,0,0,0,376,313.352V507a14.972,14.972,0,0,0,14.973,14.973H441.9c-1.7-7.054-3.815-18.071-1.674-25.731v0c.1-.357.206-.71.325-1.052a39.993,39.993,0,0,0,1.443-15.339,31.876,31.876,0,0,0,0-13.373c-1.573-7.341-2.674-14.553-2.674-14.553s-.867-9.7-.11-15.648c.017-.131.036-.254.055-.381l-.417-.1s2.229-10.1,3.015-16.519c.186-1.517.43-3.439.695-5.489a13.182,13.182,0,0,1-2.137-.542c-7.08-2.491-9.309-25.041-9.309-25.041v-7.145s-2.36-10.947,5.9-15.8c7.954-4.671,11.129-5.95,11.354-6.038.061-.043.12-.083.182-.131a6.967,6.967,0,0,0,2.072-2.667q.017-.27.008-.537c-.134-2.561-1.917-4.891-3.609-6.923l-4.329-5.2a5.084,5.084,0,0,1-1.115-1.8,4.16,4.16,0,0,1-.118-1.136q0-.212,0-.424.035-1.939.105-3.877c.041-1.129.325-2.553,1.43-2.785.575-.121,1.336.09,1.64-.413a.986.986,0,0,0,.074-.668c0,.017,0,.034-.009.051,0-.021-.007-.042-.011-.063a14.139,14.139,0,0,1-.41-2.763,3.68,3.68,0,0,1,.178-1.241c.64-1.874,2.846-2.643,4.794-3s4.136-.658,5.359-2.215a16.966,16.966,0,0,1,1.064-1.5,4.175,4.175,0,0,1,1.994-1.006,11.021,11.021,0,0,1,7.247.643,6.386,6.386,0,0,0,2.923.944c1.074-.068,1.991-.824,3.052-1.008,1.713-.3,3.35.986,4.194,2.506a6.2,6.2,0,0,1,.776,3.164,4.354,4.354,0,0,1-1.111,2.986c-.737.782-1.837,1.319-2.143,2.349-.125.419-.1.871-.206,1.294-.014.053-.036.1-.054.153.02.026.042.051.062.077a13.372,13.372,0,0,1-6.508,20.8c0,.133-.01.265-.01.4a5.778,5.778,0,0,0,1.788,4.45l11.682,4.791s7.033-.852,9.57,9.643a18.155,18.155,0,0,1,.434,5.327,15.892,15.892,0,0,0,1.926,7.974c2.884,5.769,2.229,19.01-3.671,20.321-5.588,1.242-7.762.72-7.976.661l-.013.232c.092,2.485.976,23.915,4.187,26.508.888.717.718,1.2-.01,1.528l0,0s.006.138.02.385c.1,1.567.592,7.536,2.741,10.932,2.492,3.933,2.23,26.616,2.23,26.616l1.7,13.373s-1.048,8.26,0,9.7c.6.817,1.317,13.481,1.83,24.293h43.793A14.972,14.972,0,0,0,551.1,507V313.352a14.973,14.973,0,0,0-14.973-14.973Z"
          transform="translate(-192.4 -160.284)" fill="#7dc02f"/>
    <rect id="Rectangle_15" data-name="Rectangle 15" width="175.097" height="223.595" rx="23.772"
          transform="translate(168.484 121.09)" fill="none" stroke="#3f3d56" stroke-miterlimit="10" stroke-width="1"/>
    <path id="Path_72" data-name="Path 72"
          d="M180.95,400.329s-5.873-1.736-7.132.153,1.717,15.587,1.717,15.587l12.941.786-4.516-11.4Z"
          transform="translate(-117.446 -197.752)" fill="#2f2e41"/>
    <path id="Path_73" data-name="Path 73" d="M107.638,579.347s11.775,25.85,2.707,25.038-12.587-25.038-12.587-25.038Z"
          transform="translate(-89.407 -264.285)" fill="#a0616a"/>
    <path id="Path_74" data-name="Path 74" d="M234.807,573.665s-5.166,27.932,3.436,24.949,6.15-27.341,6.15-27.341Z"
          transform="translate(-139.568 -261.297)" fill="#a0616a"/>
    <path id="Path_75" data-name="Path 75"
          d="M166.393,387.682s-.135,12.993,4.872,13.67-2.842,7.579-2.842,7.579l-8.933,1.759-12.858-.947-5.684-7.308s10.015-4.737,5.684-19.489Z"
          transform="translate(-105.395 -191.587)" fill="#a0616a"/>
    <path id="Path_76" data-name="Path 76"
          d="M166.393,387.682s-.135,12.993,4.872,13.67-2.842,7.579-2.842,7.579l-8.933,1.759-12.858-.947-5.684-7.308s10.015-4.737,5.684-19.489Z"
          transform="translate(-105.395 -191.587)" opacity="0.1"/>
    <path id="Path_77" data-name="Path 77"
          d="M183.727,564.936s6.361,13.67,1.353,56.573c0,0,1.489,15.158.271,18s-11.233,41.415-11.233,41.415-12.857,2.842-14.617-5.684c0,0,1.759-12.181,1.624-14.076s2.842-22.6,2.842-22.6l-6.09-40.061-4.6,36.136s0,10.421-1.489,12.722,0,48.588,0,48.588,4.2,7.038-2.165,7.173-12.045-.135-12.587-4.6-.812-8.933-2.165-11.639-3.113-33.7-2.707-44.527-8.933-66.453-5.955-72.273S183.727,564.936,183.727,564.936Z"
          transform="translate(-99.721 -258.942)" fill="#2f2e41"/>
    <circle id="Ellipse_20" data-name="Ellipse 20" cx="16.241" cy="16.241" r="16.241"
            transform="translate(37.855 168.486)" fill="#a0616a"/>
    <path id="Path_78" data-name="Path 78"
          d="M139.671,411.613s9.88,7.309,24.226,1.489c0,0,4.737-2.3,4.331-5.82s9.88,28.286,9.88,28.286l10.421,55.355-.541,22.6s-4.6-2.3-18.948,2.842-37.76-5.82-37.76-5.82l.812-58.062.812-33.835,2.165-7.444S136.152,409.177,139.671,411.613Z"
          transform="translate(-101.816 -200.494)" fill="#f2f2f2"/>
    <path id="Path_79" data-name="Path 79"
          d="M182.063,399.886s2.391-.388,4.692,3.266,7.714,5.955,7.714,5.955,13.128.812,15.023,7.85,6.632,16.647,8.933,34.377,6.9,46.016,7.579,48.317-.947,9.339.947,11.5-13.4,2.165-13.4,2.165-1.353-11.1-2.3-11.1-.677,7.444.271,12.857-6.9,0-6.9,0-6.09-24.767-11.91-47.1-9.2-34.647-8.12-39.655,4.06-19.354,1.895-20.707S182.063,399.886,182.063,399.886Z"
          transform="translate(-120.613 -197.853)" fill="#2f2e41"/>
    <path id="Path_80" data-name="Path 80"
          d="M128.3,399.874a147.43,147.43,0,0,0-12.469,8.285c-8.933,6.361-15.023,11.233-15.023,11.233s-3.519,2.707-5.684,18.813S88.09,496,89.985,501.275s2.571,8.391,1.895,11.5,14.211,2.978,14.482,2.3-.406-12.993.271-13.263,4.331,7.308,5.008,13.669,8.527,11.369,10.286,11.369,10.827-36.678,10.963-61.716-2.978-46.152-5.278-49.129S128.3,399.874,128.3,399.874Z"
          transform="translate(-86.372 -197.853)" fill="#2f2e41"/>
    <path id="Path_81" data-name="Path 81"
          d="M181.791,742.093s1.083-2.978,4.872-2.03,6.361-2.436,6.361-2.436,2.03-.271.677,2.3-2.436,4.331-2.436,4.331,8.121,18.542,2.842,23.008a11.317,11.317,0,0,1-11.369,1.759s-5.955-4.2-5.684-15.294c0,0-.271-3.519-3.519-9.2s-5.684-14.346-1.759-15.97,4.935-1.684,4.935-1.684-1.837,8.4,2.908,11.336Z"
          transform="translate(-116.056 -318.894)" fill="#3f3d56"/>
    <path id="Path_82" data-name="Path 82"
          d="M146.581,780.078s-3.248-6.09,2.165-6.767,11.233-1.083,10.963,1.759-.947,7.173-.947,7.173l.947,3.113s.271,7.714,1.218,8.662,6.09,9.068-4.872,9.068-14.211-1.218-13.264-3.79S144.01,784,144.01,784Z"
          transform="translate(-106.019 -335.9)" fill="#3f3d56"/>
    <path id="Path_83" data-name="Path 83"
          d="M149.15,344.585s7.579,2.03,11.5,2.842,3.519-1.489,3.519-1.489,5.143.677,4.872.135,2.165-3.384-.677-6.632-2.03-5.684-2.03-5.684H163.9l-.677-.947h-3.79s-2.842-1.083-10.286,0-17.594,1.353-18.407,5.82-5.008,10.015-3.519,12.587,10.015,13.128,10.827,17.594,4.6,5.459,4.467,2.662-3.926-12.542-.678-12.948S150.639,349.863,149.15,344.585Z"
          transform="translate(-100.198 -172.851)" fill="#2f2e41"/>
    <path id="Path_84" data-name="Path 84"
          d="M1011.41,86.584a14.475,14.475,0,0,0-12.477,8.724c-3.12,7.542.9,16.4,6.928,21.9s13.777,8.643,20.815,12.775c9.454,5.55,17.949,13.254,22.679,23.143s5.233,22.139-.327,31.587c-5.161,8.769-14.545,14.017-23.495,18.857"
          transform="translate(-422.581 -81.887)" fill="none" stroke="#3f3d56" stroke-miterlimit="10" stroke-width="1"/>
    <ellipse id="Ellipse_21" data-name="Ellipse 21" cx="11.022" cy="5.354" rx="11.022" ry="5.354"
             transform="translate(585.756)" fill="#046b00"/>
    <ellipse id="Ellipse_22" data-name="Ellipse 22" cx="11.022" cy="5.354" rx="11.022" ry="5.354"
             transform="translate(594.574 35.271)" fill="#046b00"/>
    <ellipse id="Ellipse_23" data-name="Ellipse 23" cx="11.022" cy="5.354" rx="11.022" ry="5.354"
             transform="translate(574.419 40.94)" fill="#046b00"/>
    <ellipse id="Ellipse_24" data-name="Ellipse 24" cx="11.022" cy="5.354" rx="11.022" ry="5.354"
             transform="translate(605.911 70.543)" fill="#046b00"/>
    <ellipse id="Ellipse_25" data-name="Ellipse 25" cx="11.022" cy="5.354" rx="11.022" ry="5.354"
             transform="translate(627.955 70.543)" fill="#046b00"/>
</svg>
