<svg xmlns="http://www.w3.org/2000/svg" width="926.219" height="666.566"
     viewBox="0 0 926.219 666.566">
    <defs>
        <linearGradient id="linear-gradient" x1="0.459" y1="0.999" x2="0.459" y2="-0.006"
                        gradientUnits="objectBoundingBox">
            <stop offset="0" stop-color="gray" stop-opacity="0.251"/>
            <stop offset="0.54" stop-color="gray" stop-opacity="0.122"/>
            <stop offset="1" stop-color="gray" stop-opacity="0.102"/>
        </linearGradient>
    </defs>
    <g id="Group_19" data-name="Group 19" transform="translate(-456 -130.707)">
        <ellipse id="Ellipse_20" data-name="Ellipse 20" cx="384.906" cy="29.887" rx="384.906" ry="29.887"
                 transform="translate(495.514 616.005)" fill="#6c63ff" opacity="0.1"/>
        <g id="Group_7" data-name="Group 7" transform="translate(1071.708 130.707)" opacity="0.1">
            <path id="Path_247" data-name="Path 247"
                  d="M923.393,521.324c-2.3-6.983-11.629-10.2-20.83-7.173a22.426,22.426,0,0,0-3.831,1.657c-.589-.163-1.2-.308-1.811-.417a20.308,20.308,0,0,0,.57-6.149,22.279,22.279,0,0,0,9.872-19.445,22.306,22.306,0,0,0,9.836-19.445,21.517,21.517,0,0,0,7.453-8.441c4.438-8.785,2.6-18.657-4.112-22.053s-15.759.978-20.2,9.763a21.454,21.454,0,0,0-2.382,11,22.307,22.307,0,0,0-9.835,19.445,22.306,22.306,0,0,0-9.835,19.445,22.315,22.315,0,0,0-9.872,19.454,21.517,21.517,0,0,0-7.454,8.441,23.056,23.056,0,0,0-1.884,5.2,19.177,19.177,0,0,0-4.021-4.284,22.988,22.988,0,0,0-.906-4.075c-3.025-9.211-11.14-14.826-18.113-12.525s-10.2,11.62-7.173,20.83a20.893,20.893,0,0,0,6.847,10.035,22.985,22.985,0,0,0,.906,4.075,19.927,19.927,0,0,0,9.193,11.547,21.052,21.052,0,0,0-.752,3.532,22.9,22.9,0,0,0-6.829,13.5,22.886,22.886,0,0,0-6.829,13.513,22.309,22.309,0,0,0-4.528,6.168c-4.447,8.785-2.608,18.666,4.1,22.053s15.759-.969,20.205-9.763a22.3,22.3,0,0,0,2.264-7.327,22.9,22.9,0,0,0,6.829-13.5,22.886,22.886,0,0,0,6.829-13.512,22.831,22.831,0,0,0,6.747-13.5,22.831,22.831,0,0,0,6.847-13.531,21.841,21.841,0,0,0,3.07-3.623,21.246,21.246,0,0,0,11.112-.7,22.428,22.428,0,0,0,3.831-1.657,21.011,21.011,0,0,0,12.154-.435C920.043,536.431,925.685,528.316,923.393,521.324Z"
                  transform="translate(-773.772 -176.44)" fill="#7dc02f"/>
            <g id="Group_5" data-name="Group 5" transform="translate(51.647 286.678)" opacity="0.1">
                <path id="Path_248" data-name="Path 248"
                      d="M915.341,499.53a19.471,19.471,0,0,1-3.115,2.491,20.829,20.829,0,0,1-1.005,7.635,23.7,23.7,0,0,0,1.9-3.106,22.316,22.316,0,0,0,2.219-7.019Z"
                      transform="translate(-833.605 -468.855)"/>
                <path id="Path_249" data-name="Path 249"
                      d="M926.2,478.06a19.475,19.475,0,0,1-3.116,2.491,20.829,20.829,0,0,1-1.005,7.635,23.232,23.232,0,0,0,1.9-3.115A22.511,22.511,0,0,0,926.2,478.06Z"
                      transform="translate(-834.629 -466.83)"/>
                <path id="Path_250" data-name="Path 250"
                      d="M901.422,469.654a19.847,19.847,0,0,1,.154-3.994,22.581,22.581,0,0,0-4.329,5.95,23.217,23.217,0,0,0-1.377,3.378A20.6,20.6,0,0,1,901.422,469.654Z"
                      transform="translate(-832.157 -465.66)"/>
                <path id="Path_251" data-name="Path 251"
                      d="M833.07,599.3a21.368,21.368,0,0,1,2.672-3.061,20.756,20.756,0,0,1,.788-3.623,22.716,22.716,0,0,0-2.074,3.36,23.191,23.191,0,0,0-1.385,3.324Z"
                      transform="translate(-826.232 -477.637)"/>
                <path id="Path_252" data-name="Path 252"
                      d="M840.61,584.413a21.364,21.364,0,0,1,2.672-3.061,20.82,20.82,0,0,1,.752-3.532h0a23.241,23.241,0,0,0-1.992,3.251,24.218,24.218,0,0,0-1.431,3.342Z"
                      transform="translate(-826.944 -476.241)"/>
                <path id="Path_253" data-name="Path 253"
                      d="M904.517,520.978a18.859,18.859,0,0,1-3.107,2.482,20.333,20.333,0,0,1-.571,6.149,16.982,16.982,0,0,1,1.811.417,22.429,22.429,0,0,1,3.831-1.657c9.22-3.025,18.539.19,20.83,7.173a10.58,10.58,0,0,1,.29,5.434c3.034-3.568,4.293-7.915,2.989-11.9-2.3-6.983-11.629-10.2-20.83-7.173a22.428,22.428,0,0,0-3.831,1.657c-.589-.163-1.2-.308-1.811-.417C904.291,522.418,904.417,521.7,904.517,520.978Z"
                      transform="translate(-832.626 -470.858)"/>
                <path id="Path_254" data-name="Path 254"
                      d="M828.989,607.49a22.713,22.713,0,0,0-2.074,3.36,24.058,24.058,0,0,0-1.395,3.387,22.175,22.175,0,0,1,2.717-3.079A20.771,20.771,0,0,1,828.989,607.49Z"
                      transform="translate(-825.52 -479.04)"/>
                <path id="Path_255" data-name="Path 255"
                      d="M890.512,491.124a19.924,19.924,0,0,1,.154-3.994,22.577,22.577,0,0,0-4.329,5.95,23.207,23.207,0,0,0-1.377,3.378,20.6,20.6,0,0,1,5.552-5.334Z"
                      transform="translate(-831.128 -467.685)"/>
                <path id="Path_256" data-name="Path 256"
                      d="M875.306,578.811a22.006,22.006,0,0,1-.906,3.967,24.167,24.167,0,0,0,1.893-3.116,23.074,23.074,0,0,0,1.476-3.622A21.958,21.958,0,0,1,875.306,578.811Z"
                      transform="translate(-830.131 -476.073)"/>
                <path id="Path_257" data-name="Path 257"
                      d="M860.226,608.631a21.876,21.876,0,0,1-.906,3.967,23.252,23.252,0,0,0,1.9-3.115,23.992,23.992,0,0,0,1.476-3.623A21.346,21.346,0,0,1,860.226,608.631Z"
                      transform="translate(-828.709 -478.886)"/>
                <path id="Path_258" data-name="Path 258"
                      d="M867.766,593.717a21.835,21.835,0,0,1-.906,3.967,24.151,24.151,0,0,0,1.938-3.061A23.1,23.1,0,0,0,870.274,591a21.946,21.946,0,0,1-2.509,2.717Z"
                      transform="translate(-829.42 -477.484)"/>
                <path id="Path_259" data-name="Path 259"
                      d="M882.846,563.895a21.729,21.729,0,0,1-.906,3.958,23.435,23.435,0,0,0,1.893-3.106,23.076,23.076,0,0,0,1.485-3.686A21.021,21.021,0,0,1,882.846,563.895Z"
                      transform="translate(-830.843 -474.66)"/>
                <path id="Path_260" data-name="Path 260"
                      d="M833.1,525.748c6.992-2.291,15.106,3.315,18.113,12.525a23.248,23.248,0,0,1,.906,4.085,19.182,19.182,0,0,1,4.021,4.284,23.121,23.121,0,0,1,1.884-5.207c.317-.616.661-1.2,1.014-1.811a19.085,19.085,0,0,0-3.623-3.786,22.974,22.974,0,0,0-.906-4.076c-3.025-9.21-11.14-14.826-18.113-12.525-3.985,1.3-6.738,4.9-7.807,9.446a10.587,10.587,0,0,1,4.51-2.934Z"
                      transform="translate(-825.81 -470.666)"/>
                <path id="Path_261" data-name="Path 261"
                      d="M868.792,534.065a19.781,19.781,0,0,1,.163-3.985,22.4,22.4,0,0,0-4.338,5.95,22.718,22.718,0,0,0-1.377,3.369A20.833,20.833,0,0,1,868.792,534.065Z"
                      transform="translate(-829.078 -471.737)"/>
                <path id="Path_262" data-name="Path 262"
                      d="M879.652,512.585a19.777,19.777,0,0,1,.163-3.985,22.2,22.2,0,0,0-4.338,5.941,23.216,23.216,0,0,0-1.377,3.378A20.6,20.6,0,0,1,879.652,512.585Z"
                      transform="translate(-830.103 -469.711)"/>
                <path id="Path_263" data-name="Path 263"
                      d="M852.686,623.538a21.965,21.965,0,0,1-.906,3.976,23.3,23.3,0,0,0,3.378-6.783,21.347,21.347,0,0,1-2.472,2.807Z"
                      transform="translate(-827.997 -480.289)"/>
            </g>
            <path id="Path_264" data-name="Path 264"
                  d="M944.574,427.413a21.446,21.446,0,0,0,7.453-8.441c4.447-8.785,2.608-18.666-4.1-22.062s-15.758.978-20.205,9.772a21.446,21.446,0,0,0-2.373,11.031,22.307,22.307,0,0,0-9.835,19.445,21.382,21.382,0,0,0-7.453,8.441,22.35,22.35,0,0,0-1.368,3.342,18.883,18.883,0,0,1,9.754-7.245,11.085,11.085,0,0,0,14.074,7.1,18.883,18.883,0,0,1,0,12.145,23.078,23.078,0,0,0,1.884-3.079,21.449,21.449,0,0,0,2.373-11,22.252,22.252,0,0,0,9.835-19.445Z"
                  transform="translate(-781.531 -172.388)" fill="#3f3d56"/>
            <path id="Path_265" data-name="Path 265"
                  d="M1050.634,280.2a65.191,65.191,0,0,0,7.9-4.374l-29.28-21.392,34.415,17.724a65.326,65.326,0,0,0,24.453-45.564l-58.488.6,58.614-9.8a65.208,65.208,0,1,0-129.129,16.555,65.29,65.29,0,0,0-12.009,7.245l30.566,42.5-36.7-37.2a65.28,65.28,0,0,0-18.267,59.42,65.208,65.208,0,1,0,91.517,46.279,65.208,65.208,0,0,0,36.407-71.991Z"
                  transform="translate(-779.491 -149.828)" fill="#7dc02f"/>
            <path id="Path_266" data-name="Path 266"
                  d="M928.48,274.714a65,65,0,0,0-5.751,42.3,65.208,65.208,0,1,0,91.517,46.279C1027.043,357.356,931.759,268.185,928.48,274.714Z"
                  transform="translate(-779.493 -160.936)" opacity="0.1"/>
            <circle id="Ellipse_21" data-name="Ellipse 21" cx="9.682" cy="9.682" r="9.682"
                    transform="translate(212.791 0)" fill="#7dc02f"/>
            <circle id="Ellipse_22" data-name="Ellipse 22" cx="9.682" cy="9.682" r="9.682"
                    transform="translate(269.34 6.213)" fill="#7dc02f"/>
            <circle id="Ellipse_23" data-name="Ellipse 23" cx="9.682" cy="9.682" r="9.682"
                    transform="translate(291.149 93.211)" fill="#7dc02f"/>
            <circle id="Ellipse_24" data-name="Ellipse 24" cx="9.682" cy="9.682" r="9.682"
                    transform="translate(261.715 136.655)" fill="#7dc02f"/>
            <circle id="Ellipse_25" data-name="Ellipse 25" cx="9.682" cy="9.682" r="9.682"
                    transform="translate(221.503 226.886)" fill="#6c63ff"/>
            <circle id="Ellipse_26" data-name="Ellipse 26" cx="9.682" cy="9.682" r="9.682"
                    transform="translate(221.503 226.886)" fill="#046b00" opacity="0.1"/>
            <circle id="Ellipse_27" data-name="Ellipse 27" cx="9.682" cy="9.682" r="9.682"
                    transform="translate(132.096 124.691)" fill="#6c63ff"/>
            <circle id="Ellipse_28" data-name="Ellipse 28" cx="9.682" cy="9.682" r="9.682"
                    transform="translate(132.096 124.691)" fill="#7dc02f" opacity="0.1"/>
            <path id="Path_267" data-name="Path 267"
                  d="M912.846,471.137c-6.439-3.251-8.386-12.462-4.628-20.957-.2.344-.389.7-.571,1.069-4.447,8.785-2.608,18.657,4.1,22.053s15.758-.978,20.2-9.763c.19-.362.353-.734.516-1.1C927.853,470.512,919.276,474.4,912.846,471.137Z"
                  transform="translate(-781.392 -177.522)" opacity="0.1"/>
            <path id="Path_268" data-name="Path 268"
                  d="M902.286,492.016c-6.43-3.251-8.386-12.462-4.619-20.966-.2.353-.4.706-.58,1.069-4.447,8.785-2.608,18.666,4.1,22.053s15.759-.969,20.205-9.763c.181-.362.353-.724.516-1.1C917.293,491.382,908.725,495.267,902.286,492.016Z"
                  transform="translate(-780.396 -179.491)" opacity="0.1"/>
            <path id="Path_269" data-name="Path 269"
                  d="M891.726,512.887c-6.43-3.251-8.386-12.462-4.619-20.957-.2.344-.4.7-.58,1.069-4.447,8.785-2.6,18.657,4.112,22.053s15.749-.978,20.2-9.763c.181-.362.353-.734.516-1.1C906.742,512.262,898.165,516.147,891.726,512.887Z"
                  transform="translate(-779.4 -181.46)" opacity="0.1"/>
            <path id="Path_270" data-name="Path 270"
                  d="M881.206,533.817c-6.439-3.251-8.386-12.462-4.628-20.957-.2.344-.389.7-.58,1.06-4.438,8.785-2.6,18.666,4.112,22.062s15.759-.978,20.2-9.772c.19-.362.353-.724.516-1.1C896.185,533.138,887.608,537.023,881.206,533.817Z"
                  transform="translate(-778.407 -183.435)" opacity="0.1"/>
            <path id="Path_271" data-name="Path 271"
                  d="M870.616,554.637c-6.439-3.251-8.386-12.462-4.628-20.957-.2.344-.389.7-.57,1.069-4.447,8.785-2.608,18.657,4.1,22.053s15.759-.978,20.205-9.763c.181-.362.353-.734.516-1.1C885.641,554.012,877.046,557.9,870.616,554.637Z"
                  transform="translate(-777.408 -185.399)" opacity="0.1"/>
            <path id="Path_272" data-name="Path 272"
                  d="M860.056,575.517c-6.43-3.251-8.386-12.462-4.619-20.957-.2.344-.4.7-.58,1.06-4.447,8.785-2.608,18.666,4.112,22.062s15.713-.987,20.242-9.772c.181-.362.353-.725.516-1.1C875.063,574.883,866.531,578.768,860.056,575.517Z"
                  transform="translate(-776.412 -187.369)" opacity="0.1"/>
            <path id="Path_273" data-name="Path 273"
                  d="M849.5,596.387c-6.43-3.251-8.386-12.462-4.619-20.957-.2.353-.389.7-.58,1.069-4.438,8.785-2.6,18.657,4.112,22.053s15.758-.978,20.2-9.763c.19-.362.353-.734.516-1.1C864.512,595.762,855.936,599.647,849.5,596.387Z"
                  transform="translate(-775.417 -189.338)" opacity="0.1"/>
            <path id="Path_274" data-name="Path 274"
                  d="M838.946,617.267c-6.439-3.251-8.386-12.462-4.628-20.957q-.3.516-.571,1.06c-4.447,8.785-2.608,18.666,4.1,22.062s15.759-.978,20.205-9.772c.181-.362.344-.725.507-1.1C853.953,616.633,845.376,620.482,838.946,617.267Z"
                  transform="translate(-774.421 -191.308)" opacity="0.1"/>
            <path id="Path_275" data-name="Path 275"
                  d="M832.006,630.986c-6.43-3.26-8.386-12.462-4.619-20.966-.2.353-.4.706-.58,1.069-4.447,8.785-2.608,18.666,4.1,22.053s15.759-.969,20.205-9.763c.181-.362.353-.725.516-1.1C847.012,630.352,838.436,634.237,832.006,630.986Z"
                  transform="translate(-773.766 -192.601)" opacity="0.1"/>
            <path id="Path_276" data-name="Path 276"
                  d="M1013.669,535.215a33.869,33.869,0,0,0,1.811-8.867,4.836,4.836,0,1,0-.734-9.618,33.791,33.791,0,0,0-17.787-22.922,4.84,4.84,0,0,0-8.64-4.365,4.528,4.528,0,0,0-.435,1.3,33.953,33.953,0,0,0-29.769,8.921,34.091,34.091,0,0,0-8.894-.263L945.3,517.247l-.236-17.208a33.89,33.89,0,1,0,18.113,65.208,4.783,4.783,0,0,0,2.038,1.956,4.836,4.836,0,0,0,6.629-6.231,33.812,33.812,0,0,0,4.347-3.55,33.917,33.917,0,0,0,35.6-17.959l-18.249-3.07Z"
                  transform="translate(-782.638 -180.975)" fill="#046b00"/>
            <g id="Group_6" data-name="Group 6" transform="translate(135.747 317.117)" opacity="0.1">
                <path id="Path_277" data-name="Path 277"
                      d="M985.471,545.06c-6.738-8.894-10.868-19.426-15.623-29.534a123.517,123.517,0,0,0-6.4-12.1l-3.568-4.157c-.6.507-1.2,1.033-1.811,1.585a34.085,34.085,0,0,0-8.894-.263l-3.921,17.851-.235-17.208a33.89,33.89,0,1,0,18.113,65.208,4.781,4.781,0,0,0,2.038,1.956,4.836,4.836,0,0,0,6.629-6.231,33.839,33.839,0,0,0,4.347-3.55,33.954,33.954,0,0,0,20.323-3.007,47.738,47.738,0,0,1-10.995-10.551Z"
                      transform="translate(-918.381 -499.27)" fill="#046b00"/>
            </g>
            <path id="Path_278" data-name="Path 278"
                  d="M852.01,500.521a4.836,4.836,0,0,0-4.329-7.019,33.846,33.846,0,0,0-10.6-18.865,33.984,33.984,0,0,0,1-10.6l-17.8-3.034,17.28-1.087a34.422,34.422,0,0,0-1.277-4.782,4.945,4.945,0,0,0,1.594-1.811,4.845,4.845,0,0,0-5.968-6.738,33.89,33.89,0,0,0-60.489,28,4.754,4.754,0,0,0-2.409,2.264,4.836,4.836,0,0,0,6.113,6.675,33.99,33.99,0,0,0,6.421,7.834,33.872,33.872,0,0,0,1.576,21.518l23.864-6.195-21.283,11.194a33.89,33.89,0,0,0,62.409-14.726,4.827,4.827,0,0,0,3.894-2.635Z"
                  transform="translate(-768.494 -175.832)" fill="#6c63ff"/>
            <path id="Path_279" data-name="Path 279"
                  d="M853.26,504.756a4.836,4.836,0,0,0-4.329-7.019,33.846,33.846,0,0,0-10.6-18.865c.145-.571.272-1.132.38-1.7a11.943,11.943,0,0,0-1.748,1.549c-3.215,3.523-4.863,8.26-8.042,11.819-3.749,4.2-9.365,6.394-14.971,6.983s-11.248-.272-16.782-1.349c-4.583-.906-9.229-1.956-13.875-1.512a7.758,7.758,0,0,0-1.322.172c.272.263.543.525.824.779a33.872,33.872,0,0,0,1.576,21.518l23.864-6.2-21.283,11.194a33.89,33.89,0,0,0,62.409-14.726,4.827,4.827,0,0,0,3.894-2.635Z"
                  transform="translate(-769.743 -180.068)" opacity="0.1"/>
        </g>
        <g id="Group_10" data-name="Group 10" transform="translate(456 336.618)" opacity="0.1">
            <path id="Path_280" data-name="Path 280"
                  d="M177.949,563.993c1.159-3.523,5.86-5.144,10.5-3.623a11.573,11.573,0,0,1,1.929.833c.3-.082.607-.154.906-.208a10.2,10.2,0,0,1-.29-3.1,11.285,11.285,0,0,1-4.954-9.8,11.254,11.254,0,0,1-4.954-9.79,10.867,10.867,0,0,1-3.749-4.257c-2.228-4.42-1.322-9.392,2.074-11.112s7.943.5,10.18,4.918a10.868,10.868,0,0,1,1.2,5.552,11.2,11.2,0,0,1,4.954,9.79,11.23,11.23,0,0,1,4.954,9.8,11.2,11.2,0,0,1,4.954,9.79,10.869,10.869,0,0,1,3.758,4.257,11.468,11.468,0,0,1,.906,2.626,9.655,9.655,0,0,1,2.02-2.165,11.389,11.389,0,0,1,.471-2.056c1.531-4.637,5.615-7.463,9.138-6.34s5.135,5.86,3.623,10.5a10.569,10.569,0,0,1-3.451,5.063,11.476,11.476,0,0,1-.471,2.047,10.053,10.053,0,0,1-4.628,5.814,11.624,11.624,0,0,1,.38,1.811,11.383,11.383,0,0,1,2.291,3.106,11.159,11.159,0,0,1,1.141,3.7,11.365,11.365,0,0,1,2.3,3.106,11.224,11.224,0,0,1,1.141,3.7,11.278,11.278,0,0,1,2.3,3.115c2.237,4.42,1.313,9.4-2.065,11.1s-7.943-.489-10.18-4.918a11.3,11.3,0,0,1-1.141-3.7,11.5,11.5,0,0,1-3.442-6.8,11.5,11.5,0,0,1-3.442-6.8,11.412,11.412,0,0,1-2.3-3.107,11.527,11.527,0,0,1-1.141-3.695,11.386,11.386,0,0,1-2.291-3.106,11.158,11.158,0,0,1-1.141-3.7,10.541,10.541,0,0,1-1.549-1.811,10.777,10.777,0,0,1-5.6-.344,12.031,12.031,0,0,1-1.938-.842,10.515,10.515,0,0,1-6.113-.217C179.633,571.6,176.8,567.516,177.949,563.993Z"
                  transform="translate(-96.901 -390.242)" fill="#3f3d56"/>
            <g id="Group_8" data-name="Group 8" transform="translate(80.832 144.426)" opacity="0.1">
                <path id="Path_281" data-name="Path 281"
                      d="M187.17,553a9.707,9.707,0,0,0,1.576,1.259,10.244,10.244,0,0,0,.507,3.84,10.806,10.806,0,0,1-.96-1.567A11.284,11.284,0,0,1,187.17,553Z"
                      transform="translate(-178.777 -537.559)"/>
                <path id="Path_282" data-name="Path 282"
                      d="M181.7,542.2a10.149,10.149,0,0,0,1.576,1.25,10.317,10.317,0,0,0,.507,3.849A11.5,11.5,0,0,1,181.7,542.2Z"
                      transform="translate(-178.261 -536.54)"/>
                <path id="Path_283" data-name="Path 283"
                      d="M194.122,537.961a10.061,10.061,0,0,0-.072-2.011,11.468,11.468,0,0,1,2.183,3,11.776,11.776,0,0,1,.688,1.7A10.342,10.342,0,0,0,194.122,537.961Z"
                      transform="translate(-179.426 -535.95)"/>
                <path id="Path_284" data-name="Path 284"
                      d="M228.649,603.281a10.548,10.548,0,0,0-1.34-1.54,11.224,11.224,0,0,0-.4-1.811,11.976,11.976,0,0,1,1.041,1.684A11.771,11.771,0,0,1,228.649,603.281Z"
                      transform="translate(-182.526 -541.986)"/>
                <path id="Path_285" data-name="Path 285"
                      d="M224.821,595.771a10.55,10.55,0,0,0-1.34-1.54,10.642,10.642,0,0,0-.38-1.811h0a11.473,11.473,0,0,1,1.7,3.333Z"
                      transform="translate(-182.166 -541.277)"/>
                <path id="Path_286" data-name="Path 286"
                      d="M191.259,563.827a9.158,9.158,0,0,0,1.567,1.241,9.872,9.872,0,0,0,.29,3.1,9.056,9.056,0,0,0-.906.208,12.01,12.01,0,0,0-1.938-.833c-4.637-1.521-9.337.1-10.488,3.623a5.271,5.271,0,0,0-.154,2.717,6.276,6.276,0,0,1-1.5-5.986c1.159-3.523,5.86-5.144,10.5-3.623a11.583,11.583,0,0,1,1.929.833c.3-.082.607-.154.906-.208A9.346,9.346,0,0,1,191.259,563.827Z"
                      transform="translate(-177.902 -538.568)"/>
                <path id="Path_287" data-name="Path 287"
                      d="M230.71,607.4a11.583,11.583,0,0,1,1.041,1.694,11.775,11.775,0,0,1,.7,1.7,10.628,10.628,0,0,0-1.34-1.549A11.228,11.228,0,0,0,230.71,607.4Z"
                      transform="translate(-182.884 -542.691)"/>
                <path id="Path_288" data-name="Path 288"
                      d="M199.592,548.791a10.037,10.037,0,0,0-.072-2.01,11.312,11.312,0,0,1,2.183,3,11.666,11.666,0,0,1,.688,1.694A10.306,10.306,0,0,0,199.592,548.791Z"
                      transform="translate(-179.942 -536.972)"/>
                <path id="Path_289" data-name="Path 289"
                      d="M207.379,592.952a10.82,10.82,0,0,0,.444,1.992,11.438,11.438,0,0,1-1.7-3.414,10.613,10.613,0,0,0,1.259,1.422Z"
                      transform="translate(-180.564 -541.193)"/>
                <path id="Path_290" data-name="Path 290"
                      d="M214.97,607.976a11.469,11.469,0,0,0,.453,1.992,10.8,10.8,0,0,1-.96-1.567,11.663,11.663,0,0,1-.743-1.811A11.783,11.783,0,0,0,214.97,607.976Z"
                      transform="translate(-181.281 -542.614)"/>
                <path id="Path_291" data-name="Path 291"
                      d="M211.179,600.466a10.814,10.814,0,0,0,.444,1.992,11.659,11.659,0,0,1-.96-1.567,11.412,11.412,0,0,1-.743-1.811,10.62,10.62,0,0,0,1.259,1.386Z"
                      transform="translate(-180.923 -541.906)"/>
                <path id="Path_292" data-name="Path 292"
                      d="M203.584,585.437a10.739,10.739,0,0,0,.444,2,11.266,11.266,0,0,1-.906-1.567,11.077,11.077,0,0,1-.752-1.811A10.084,10.084,0,0,0,203.584,585.437Z"
                      transform="translate(-180.211 -540.489)"/>
                <path id="Path_293" data-name="Path 293"
                      d="M227.217,566.223c-3.523-1.159-7.608,1.666-9.129,6.34a11.4,11.4,0,0,0-.471,2.056,9.628,9.628,0,0,0-2.029,2.155,11.617,11.617,0,0,0-.951-2.626c-.154-.308-.326-.607-.507-.906a9.629,9.629,0,0,1,1.811-1.9,11.392,11.392,0,0,1,.471-2.056c1.531-4.637,5.615-7.463,9.138-6.34a6.276,6.276,0,0,1,3.931,4.764A5.369,5.369,0,0,0,227.217,566.223Z"
                      transform="translate(-181.32 -538.473)"/>
                <path id="Path_294" data-name="Path 294"
                      d="M210.532,570.411a10.062,10.062,0,0,0-.072-2.011,11.312,11.312,0,0,1,2.183,3,11.769,11.769,0,0,1,.688,1.7A10.214,10.214,0,0,0,210.532,570.411Z"
                      transform="translate(-180.974 -539.011)"/>
                <path id="Path_295" data-name="Path 295"
                      d="M205.062,559.591a10.08,10.08,0,0,0-.072-2.01,11.62,11.62,0,0,1,2.183,3,11.776,11.776,0,0,1,.688,1.7A10.344,10.344,0,0,0,205.062,559.591Z"
                      transform="translate(-180.458 -537.991)"/>
                <path id="Path_296" data-name="Path 296"
                      d="M218.77,615.486a10.774,10.774,0,0,0,.453,2,11.421,11.421,0,0,1-.96-1.576,11.663,11.663,0,0,1-.743-1.811A11.771,11.771,0,0,0,218.77,615.486Z"
                      transform="translate(-181.64 -543.323)"/>
            </g>
            <path id="Path_297" data-name="Path 297"
                  d="M170.152,516.68a10.8,10.8,0,0,1-3.749-4.248c-2.237-4.429-1.313-9.4,2.065-11.112s7.943.489,10.18,4.918a10.8,10.8,0,0,1,1.2,5.543,11.23,11.23,0,0,1,4.954,9.8,10.868,10.868,0,0,1,3.759,4.247,11.976,11.976,0,0,1,.688,1.685,9.573,9.573,0,0,0-4.918-3.623,5.579,5.579,0,0,1-7.091,3.623,9.528,9.528,0,0,0,0,6.113,11.955,11.955,0,0,1-.906-1.549,10.868,10.868,0,0,1-1.2-5.543,11.258,11.258,0,0,1-4.954-9.8Z"
                  transform="translate(-95.87 -388.203)" fill="#3f3d56"/>
            <path id="Path_298" data-name="Path 298"
                  d="M108.577,442.473a33.336,33.336,0,0,1-3.976-2.2l14.744-10.777-17.334,8.921A32.912,32.912,0,0,1,89.7,415.466l29.47.308L89.64,410.829a32.866,32.866,0,1,1,65.036,8.332,33.266,33.266,0,0,1,6.05,3.623l-15.4,21.41,18.485-18.729a32.894,32.894,0,0,1,9.2,29.932,32.866,32.866,0,1,1-46.1,23.312,32.857,32.857,0,0,1-18.34-36.226Z"
                  transform="translate(-88.743 -376.795)" fill="#6c63ff"/>
            <path id="Path_299" data-name="Path 299"
                  d="M173.932,439.762a32.713,32.713,0,0,1,2.9,21.31,32.866,32.866,0,1,1-46.1,23.312C124.275,481.386,172.275,436.475,173.932,439.762Z"
                  transform="translate(-92.559 -382.434)" opacity="0.1"/>
            <circle id="Ellipse_29" data-name="Ellipse 29" cx="4.882" cy="4.882" r="4.882"
                    transform="translate(39.469 0)" fill="#6c63ff"/>
            <circle id="Ellipse_30" data-name="Ellipse 30" cx="4.882" cy="4.882" r="4.882"
                    transform="translate(10.977 3.134)" fill="#6c63ff"/>
            <circle id="Ellipse_31" data-name="Ellipse 31" cx="4.882" cy="4.882" r="4.882"
                    transform="translate(0 46.958)" fill="#6c63ff"/>
            <circle id="Ellipse_32" data-name="Ellipse 32" cx="4.882" cy="4.882" r="4.882"
                    transform="translate(14.826 68.848)" fill="#6c63ff"/>
            <circle id="Ellipse_33" data-name="Ellipse 33" cx="4.882" cy="4.882" r="4.882"
                    transform="translate(35.076 114.303)" fill="#6c63ff"/>
            <circle id="Ellipse_34" data-name="Ellipse 34" cx="4.882" cy="4.882" r="4.882"
                    transform="translate(35.076 114.303)" opacity="0.1"/>
            <circle id="Ellipse_35" data-name="Ellipse 35" cx="4.882" cy="4.882" r="4.882"
                    transform="translate(80.115 62.817)" fill="#6c63ff"/>
            <circle id="Ellipse_36" data-name="Ellipse 36" cx="4.882" cy="4.882" r="4.882"
                    transform="translate(80.115 62.817)" opacity="0.1"/>
            <path id="Path_300" data-name="Path 300"
                  d="M187.22,538.71c3.242-1.639,4.22-6.276,2.328-10.56.1.181.2.353.29.534,2.237,4.429,1.313,9.4-2.074,11.112s-7.934-.489-10.171-4.918c-.091-.181-.181-.362-.263-.552C179.658,538.393,183.978,540.349,187.22,538.71Z"
                  transform="translate(-97.016 -390.788)" opacity="0.1"/>
            <path id="Path_301" data-name="Path 301"
                  d="M192.531,549.23c3.242-1.639,4.229-6.285,2.337-10.56.1.172.2.353.29.534,2.237,4.429,1.313,9.4-2.074,11.112s-7.934-.489-10.171-4.918c-.1-.181-.181-.371-.263-.552C184.978,548.931,189.307,550.869,192.531,549.23Z"
                  transform="translate(-97.518 -391.781)" opacity="0.1"/>
            <path id="Path_302" data-name="Path 302"
                  d="M197.851,559.74c3.242-1.639,4.229-6.276,2.328-10.56.109.181.2.353.3.543,2.237,4.42,1.3,9.4-2.074,11.1s-7.934-.489-10.171-4.918c-.1-.181-.181-.362-.263-.552C190.288,559.423,194.608,561.379,197.851,559.74Z"
                  transform="translate(-98.02 -392.772)" opacity="0.1"/>
            <path id="Path_303" data-name="Path 303"
                  d="M203.171,570.26c3.242-1.639,4.229-6.276,2.328-10.56.1.172.2.353.29.534,2.246,4.429,1.313,9.4-2.065,11.112s-7.943-.489-10.18-4.918c-.091-.181-.172-.371-.254-.552C195.608,569.934,199.928,571.9,203.171,570.26Z"
                  transform="translate(-98.522 -393.765)" opacity="0.1"/>
            <path id="Path_304" data-name="Path 304"
                  d="M208.49,580.771c3.242-1.639,4.22-6.276,2.328-10.551.1.172.2.353.29.534,2.237,4.429,1.313,9.4-2.065,11.112s-7.943-.5-10.18-4.918c-.091-.19-.172-.371-.263-.552C200.928,580.454,205.248,582.41,208.49,580.771Z"
                  transform="translate(-99.023 -394.757)" opacity="0.1"/>
            <path id="Path_305" data-name="Path 305"
                  d="M213.81,591.29c3.242-1.639,4.22-6.276,2.328-10.56.1.181.2.353.29.534,2.237,4.429,1.313,9.4-2.065,11.113s-7.943-.489-10.18-4.918c-.091-.181-.181-.362-.263-.552C206.248,590.937,210.568,592.929,213.81,591.29Z"
                  transform="translate(-99.524 -395.749)" opacity="0.1"/>
            <path id="Path_306" data-name="Path 306"
                  d="M219.13,601.81c3.233-1.639,4.22-6.285,2.328-10.56.1.172.2.353.29.534,2.237,4.429,1.313,9.4-2.074,11.113s-7.934-.5-10.171-4.918c-.091-.19-.181-.371-.263-.552C211.568,601.484,215.888,603.449,219.13,601.81Z"
                  transform="translate(-100.026 -396.741)" opacity="0.1"/>
            <path id="Path_307" data-name="Path 307"
                  d="M224.441,612.32c3.242-1.639,4.229-6.276,2.328-10.56.109.181.2.353.3.543,2.237,4.42,1.3,9.4-2.074,11.1s-7.934-.489-10.171-4.918c-.1-.181-.181-.362-.263-.552C216.888,612,221.2,613.959,224.441,612.32Z"
                  transform="translate(-100.528 -397.733)" opacity="0.1"/>
            <path id="Path_308" data-name="Path 308"
                  d="M227.97,619.23c3.242-1.639,4.22-6.276,2.328-10.56.1.181.2.353.29.543,2.237,4.42,1.313,9.4-2.065,11.1s-7.943-.489-10.18-4.918c-.091-.181-.181-.362-.263-.552C220.38,618.931,224.7,620.869,227.97,619.23Z"
                  transform="translate(-100.86 -398.385)" opacity="0.1"/>
            <path id="Path_309" data-name="Path 309"
                  d="M132.513,570.989a16.818,16.818,0,0,1-.906-4.465,2.436,2.436,0,1,1,.371-4.845,17.044,17.044,0,0,1,8.957-11.547,2.44,2.44,0,1,1,4.356-2.2,2.21,2.21,0,0,1,.217.652,17.135,17.135,0,0,1,15,4.528,16.918,16.918,0,0,1,4.528-.127l1.974,8.984.045-8.667a17.072,17.072,0,1,1-9.129,32.866,2.5,2.5,0,0,1-1.023.987,2.445,2.445,0,0,1-3.351-3.143,17.047,17.047,0,0,1-2.183-1.811,17.09,17.09,0,0,1-17.932-9.057l9.192-1.549Z"
                  transform="translate(-92.474 -392.528)" fill="#6c63ff"/>
            <g id="Group_9" data-name="Group 9" transform="translate(48.652 159.759)" opacity="0.1">
                <path id="Path_310" data-name="Path 310"
                      d="M147.958,575.947c3.4-4.528,5.479-9.781,7.87-14.871a60.41,60.41,0,0,1,3.224-6.1l1.811-2.092c.308.263.607.525.906.8a16.916,16.916,0,0,1,4.528-.127l1.974,8.984.027-8.64a17.072,17.072,0,1,1-9.129,32.866,2.5,2.5,0,0,1-1.023.987,2.445,2.445,0,0,1-3.351-3.143,17.064,17.064,0,0,1-2.183-1.811,17.207,17.207,0,0,1-10.243-1.512A24.08,24.08,0,0,0,147.958,575.947Z"
                      transform="translate(-142.37 -552.88)"/>
            </g>
            <path id="Path_311" data-name="Path 311"
                  d="M214.883,553.511a2.427,2.427,0,0,1,1.078-3.269,2.391,2.391,0,0,1,1.1-.263,17.072,17.072,0,0,1,5.334-9.509,16.946,16.946,0,0,1-.5-5.334l8.957-1.5-8.7-.552a16.893,16.893,0,0,1,.652-2.409,2.39,2.39,0,0,1-.806-.906,2.445,2.445,0,0,1,3.007-3.4A16.872,16.872,0,0,1,231.23,521a17.063,17.063,0,0,1,24.245,19.472,2.436,2.436,0,0,1-1.866,4.5,16.971,16.971,0,0,1-3.233,3.93,17.117,17.117,0,0,1-.788,10.868l-11.982-3.152,10.714,5.642a17.081,17.081,0,0,1-29.733-1.395,17.308,17.308,0,0,1-1.757-6.023A2.418,2.418,0,0,1,214.883,553.511Z"
                  transform="translate(-100.534 -389.939)" fill="#6c63ff"/>
            <path id="Path_312" data-name="Path 312"
                  d="M214.883,555.643a2.427,2.427,0,0,1,1.078-3.269,2.39,2.39,0,0,1,1.1-.263A17.072,17.072,0,0,1,222.4,542.6c-.072-.281-.136-.571-.19-.851a6.586,6.586,0,0,1,.906.779c1.621,1.811,2.454,4.157,4.048,5.95A11.692,11.692,0,0,0,234.708,552a28.565,28.565,0,0,0,8.45-.679,24.773,24.773,0,0,1,6.992-.77l.67.091-.417.389a17.117,17.117,0,0,1-.788,10.868l-12.009-3.152,10.714,5.642A17.081,17.081,0,0,1,218.587,563a17.307,17.307,0,0,1-1.757-6.023A2.418,2.418,0,0,1,214.883,555.643Z"
                  transform="translate(-100.534 -392.071)" opacity="0.1"/>
        </g>
        <path id="Path_315" data-name="Path 315"
              d="M200.825,243.9a26.264,26.264,0,0,0-15.188,1.648,22.379,22.379,0,0,1-18.24-.045,25.558,25.558,0,0,0-21.446.426,13.359,13.359,0,0,1-6.177,1.54c-8.694,0-15.931-8.758-17.434-20.314a16.673,16.673,0,0,0,4.347-4.682c5.1-8.214,13-13.494,21.863-13.494s16.664,5.217,21.736,13.34a16.773,16.773,0,0,0,14.491,7.943H185C191.868,230.254,197.863,235.806,200.825,243.9Z"
              transform="translate(364.172 -24.06)" fill="#6c63ff" opacity="0.1"/>
        <path id="Path_316" data-name="Path 316"
              d="M227.26,204.268,213.2,213.18l8.531-15.514a13.893,13.893,0,0,0-8.5-3.034h-.226a16.451,16.451,0,0,1-2.916-.217l-4.746,3.07,2.047-3.713a16.936,16.936,0,0,1-8.332-6.34l-8.531,5.434,5.371-9.872c-4.99-5.986-11.71-9.654-19.1-9.654-8.866,0-16.764,5.271-21.863,13.485a16.347,16.347,0,0,1-14.491,7.8h-.48c-9.79,0-17.724,11.094-17.724,24.788s7.934,24.788,17.724,24.788a13.232,13.232,0,0,0,6.177-1.549,25.558,25.558,0,0,1,21.446-.417,22.379,22.379,0,0,0,18.24.045,25.585,25.585,0,0,1,21.265.408,13.268,13.268,0,0,0,6.1,1.512c9.79,0,17.724-11.1,17.724-24.788A31.481,31.481,0,0,0,227.26,204.268Z"
              transform="translate(364.181 -20.698)" fill="#046b00" opacity="0.1"/>
        <ellipse id="Ellipse_37" data-name="Ellipse 37" cx="104.151" cy="18.113" rx="104.151" ry="18.113"
                 transform="translate(909.401 761.046)" fill="#6c63ff" opacity="0.1"/>
        <path id="Path_319" data-name="Path 319"
              d="M538.63,654.121l-161.38-2.074.48-4.139,7.8-68.278H527.255l10.424,68.278.8,5.18Z"
              transform="translate(420.411 -7.323)" fill="#d0d2d5"/>
        <path id="Path_320" data-name="Path 320" d="M538.476,660.2H457.944l-80.694-1.041.48-4.139H537.679Z"
              transform="translate(420.411 -14.435)" opacity="0.1"/>
        <rect id="Rectangle_192" data-name="Rectangle 192" width="214.144" height="5.171"
              transform="translate(770.762 641.627)" fill="#d0d2d5"/>
        <path id="Path_321" data-name="Path 321"
              d="M833.154,182.512A13.467,13.467,0,0,0,819.75,169H221.724a13.467,13.467,0,0,0-13.4,13.531V545.021H833.154Z"
              transform="translate(356.06 -20.288)" fill="#3f3d56"/>
        <path id="Path_322" data-name="Path 322"
              d="M208.32,580.19v42.457a13.4,13.4,0,0,0,13.4,13.4H819.75a13.4,13.4,0,0,0,13.4-13.4V580.19Z"
              transform="translate(356.06 -59.079)" fill="#d0d2d5"/>
        <rect id="Rectangle_193" data-name="Rectangle 193" width="576.209" height="325.866"
              transform="translate(590.246 172.191)" fill="#fff"/>
        <path id="Path_323" data-name="Path 323"
              d="M555.257,621.169a13.947,13.947,0,0,0,10.986-5.334h0a14.508,14.508,0,0,0,1.087-1.594l-7.671-1.3,8.287.054a13.965,13.965,0,0,0,.263-11.058L557.1,607.7l10.252-7.535A13.965,13.965,0,1,0,544.281,615.8h0a13.947,13.947,0,0,0,10.977,5.371Z"
              transform="translate(324.646 -60.309)" fill="#6c63ff"/>
        <path id="Path_324" data-name="Path 324" d="M483.48,584.77l64.383,64.664-9.881-64.664Z"
              transform="translate(410.389 -7.807)" opacity="0.1"/>
        <rect id="Rectangle_194" data-name="Rectangle 194" width="576.833" height="19.037"
              transform="translate(589.793 171.48)" fill="#444053" opacity="0.1"/>
        <rect id="Rectangle_195" data-name="Rectangle 195" width="173.796" height="11.583" rx="0.58"
              transform="translate(790.071 174.795)" fill="#6c63ff" opacity="0.3"/>
        <path id="Path_325" data-name="Path 325"
              d="M643.031,204.917h-.426l-.154-.136a3.522,3.522,0,0,0,.815-2.255,3.423,3.423,0,1,0-3.414,3.451,3.532,3.532,0,0,0,2.255-.824l.154.136v.426l2.654,2.654.788-.8Zm-3.179,0a2.373,2.373,0,1,1,1.69-.7,2.391,2.391,0,0,1-1.69.7Z"
              transform="translate(315.674 -23.131)" fill="#3f3d56"/>
        <circle id="Ellipse_38" data-name="Ellipse 38" cx="3.487" cy="3.487" r="3.487"
                transform="translate(596.676 177.512)" fill="#fa5959" opacity="0.8"/>
        <circle id="Ellipse_39" data-name="Ellipse 39" cx="3.487" cy="3.487" r="3.487"
                transform="translate(606.267 177.512)" fill="#fed253" opacity="0.8"/>
        <circle id="Ellipse_40" data-name="Ellipse 40" cx="3.487" cy="3.487" r="3.487"
                transform="translate(615.867 177.512)" fill="#8ccf4d" opacity="0.8"/>
        <path id="Path_328" data-name="Path 328"
              d="M753.671,773.342a8.657,8.657,0,0,0-1.965-2.183c-3.958-3.74-5.8-9.229-6.774-14.608s-1.259-10.868-2.826-16.13a53.192,53.192,0,0,0-3.188-7.852c-.906-1.938-2.047-5.733-3.7-7.091a2.446,2.446,0,0,0-1.141-.552,13.45,13.45,0,0,0-3.279-4.365c-2.59-2.346-5.751-4.211-7.481-7.245a16.3,16.3,0,0,0-1.748-2.98c-1.168-1.286-3.016-1.811-4.094-3.17-1.4-1.757-1.087-4.275-.906-6.512s0-4.918-1.938-6.1c-1.159-.715-2.654-.643-3.858-1.277-1.811-.906-2.527-3.188-2.491-5.226s.67-4.021.833-6.059c.507-6.484-3.768-12.933-2.119-19.218.625-2.382,2.056-4.447,3.115-6.666a13.925,13.925,0,0,0,.906-2.3,32.366,32.366,0,0,0,8.821,2.128c-4.99-11.194-3.722-24.2-6.05-36.226l.3-.408a18.874,18.874,0,0,0,3.822-10.741c0-4.474-2.092-8.658-3.034-13.042-.806-3.722-.77-7.617-1.811-11.275a34.093,34.093,0,0,0-2.862-6.539q-1.694-3.143-3.559-6.186-1.739-5.76-3.487-11.52c-1.63-5.389-3.306-10.868-6.475-15.523-1.159-1.7-1.512-5.162-3.3-6.195a7.979,7.979,0,0,0-4.709-.824c-2.518-1.413-4.728-3.451-5.045-6.24a6.047,6.047,0,0,1,.181-1.811h.308c3.985-.362,6-3.876,8.078-6.955,3.351-4.981,2.074-11.719,0-17.389a11.775,11.775,0,0,0-2.717-4.791c-2.907-2.717-7.508-2.119-11.257-3.432-1.259-.435-2.436-1.1-3.722-1.4-2.491-.58-5.1.235-7.381,1.386a73.421,73.421,0,0,1-6.8,3.541c-2.391.906-5.343,1.621-5.932,4.076a4.529,4.529,0,0,0,.2,2.472,9.22,9.22,0,0,0,2.8,4.039,16.13,16.13,0,0,0,9.844,22.479c.688,1.1,1.331,2.228,1.92,3.378,1.051,2.029,1.938,4.42,1.576,6.593a20.344,20.344,0,0,0-1.811,2.219c-2.6,3.623-4.075,7.87-5.434,12.109a128.295,128.295,0,0,0-4.374,16.546c-2.21,4.7-4.909,9.193-6.512,14.128a31.891,31.891,0,0,1-8.495-1.141l-7.644-1.73c-2.663-.607-5.434-1.259-7.517-3.016-1.1-.906-1.965-2.11-3.088-3.007s-3.378-1.947-4.61-1.2a3.623,3.623,0,0,0-.625.48c-1.123-2.273-2.192-4.528-3.5-6.729-1.875-3.079-4.664-5.9-8.2-6.484a8.341,8.341,0,0,0-6.149,1.431c-2.065,1.467-3.36,4.528-1.811,6.593a12.036,12.036,0,0,0,1.259,1.286,26.453,26.453,0,0,1,2.8,3.885,19.843,19.843,0,0,0,12.217,7.933l-.317.906c-.643,1.884-2.01,4.157-1.666,6.113l34,11.638a20.943,20.943,0,0,0,6.847,1.512,11.053,11.053,0,0,0,2.717-.362v1.811c.091,11.946-1.811,23.81-2.164,35.746-.063,2.183,0,4.528,1.377,6.231,1.54,1.866,4.275,2.237,6.657,1.811a15.466,15.466,0,0,0,1.685-.38,62.793,62.793,0,0,1,1.739,9.156l2.246,16.175a24.57,24.57,0,0,1,.353,5.017c-.263,3.795-2.264,7.191-3.713,10.7s-2.31,7.7-.408,10.977c.6,1.014,1.422,1.875,1.956,2.925a11.9,11.9,0,0,1,.906,5.144q.208,7.318.4,14.654a1.657,1.657,0,0,0-1.141.226c-1.884,1.467-1.675,8.45-1.811,10.614-.145,3.623,0,7.318-.2,10.977a65.4,65.4,0,0,1-2.364,14.572,9.321,9.321,0,0,1-2.074,4.175,8.82,8.82,0,0,1-3.686,1.911,42.1,42.1,0,0,1-13.956,1.9c-1.911-.063-3.9-.245-5.679.48s-3.206,2.717-2.563,4.528c.553,1.521,2.228,2.246,3.74,2.817a59.345,59.345,0,0,1,9.962,4.583,26.927,26.927,0,0,0,3.849,2.183,19.844,19.844,0,0,0,3.967.978l16.057,2.771c3.288.562,7.245.906,9.337-1.811a8.231,8.231,0,0,0,1.241-5.325c-.091-3.623-.815-7.309-.344-10.931a33.639,33.639,0,0,1,1.684-6.276q2.4-7.128,4.818-14.246a74.865,74.865,0,0,0,3.867-14.572c.226-1.811.208-3.876-1.177-5.008a3.208,3.208,0,0,0-1.2-.616c-.054-4.365-.625-8.74-.38-13.1.063-1.087.172-2.174.263-3.269a15.954,15.954,0,0,1,2.237,2.644c1.549,2.427,2.119,5.633,4.483,7.245,2.01,1.377,4.99,1.3,6.4,3.3a9.292,9.292,0,0,1,1.014,2.454,17.5,17.5,0,0,0,3.623,5.751,28.977,28.977,0,0,0,2.237,5.742q2,4.229,3.985,8.432a98.316,98.316,0,0,0,4.528,8.848,24.952,24.952,0,0,1,3.034,5.851c1.277,4.474-.806,9.383-4.1,12.679s-7.644,5.189-11.927,6.956a3.359,3.359,0,0,0-1.214.724,2.346,2.346,0,0,0-.552,1.576,5.113,5.113,0,0,0,3.7,4.528,13.82,13.82,0,0,0,6.186.226c11.574-1.4,23.112-4.229,33.346-9.854a11.771,11.771,0,0,0,3.976-3.07,4.646,4.646,0,0,0,.661-4.719Z"
              transform="translate(319.084 -4.743)" fill="url(#linear-gradient)"/>
        <path id="Path_329" data-name="Path 329"
              d="M714.6,577.115q2.9,4.447,5.434,9.111a33.5,33.5,0,0,1,2.871,6.494c1.051,3.623,1.023,7.49,1.811,11.185.906,4.347,3.025,8.5,3.025,12.951a18.621,18.621,0,0,1-3.822,10.651,50.556,50.556,0,0,1-7.988,8.241,169.923,169.923,0,0,1-11.3-55.435,19.448,19.448,0,0,1,.851-7.789c.589-1.54,3.414-5.76,5.235-4.1.661.607.833,3.342,1.241,4.257A32.706,32.706,0,0,0,714.6,577.115Z"
              transform="translate(309.243 -18.334)" fill="#2f2e41"/>
        <path id="Path_330" data-name="Path 330"
              d="M714.6,577.115q2.9,4.447,5.434,9.111a33.5,33.5,0,0,1,2.871,6.494c1.051,3.623,1.023,7.49,1.811,11.185.906,4.347,3.025,8.5,3.025,12.951a18.621,18.621,0,0,1-3.822,10.651,50.556,50.556,0,0,1-7.988,8.241,169.923,169.923,0,0,1-11.3-55.435,19.448,19.448,0,0,1,.851-7.789c.589-1.54,3.414-5.76,5.235-4.1.661.607.833,3.342,1.241,4.257A32.706,32.706,0,0,0,714.6,577.115Z"
              transform="translate(309.243 -11.61)" opacity="0.1"/>
        <path id="Path_332" data-name="Path 332"
              d="M430.04,484.608l2,6.014-19.78,35.212s-32.6-14.907-35.8,7.146-1.168,28.076-2.029,39.849.281,15.179-2.59,15.179-4-7.734-4-7.734-.181-.353-.5-1.014c-1.44-11.013-8.74-75.432,17.724-72.009,0,0,21.473,10.035,24.906,6.032,2.717-3.17,14.78-21.4,19.689-28.881Z"
              transform="translate(341.248 -50.043)" opacity="0.1"/>
        <path id="Path_333" data-name="Path 333"
              d="M448.392,426.625l-13.078,14.862s-15.188,20.323-18.34,19.463a14.7,14.7,0,0,0-2.871-.335,5.579,5.579,0,0,1-3.623-9.4c5.18-5.434,14.726-15.749,15.351-18.041s6.7-12.335,9.745-17.253a27.517,27.517,0,0,1,7.445,4.374,36.668,36.668,0,0,1,5.37,6.331Z"
              transform="translate(337.133 7.971)" opacity="0.1"/>
        <path id="Path_334" data-name="Path 334"
              d="M819.122,647.461c-2.219,4.438-13.585,21.084-18.557,28.356l-2.328,3.423s-.906,6.014-15.749-1.44-363.6-154.614-363.6-154.614l-2.364-7.1,17.208-25.766L815.98,638.006S821.993,641.728,819.122,647.461Z"
              transform="translate(336.419 -4.278)" fill="#046b00"/>
        <path id="Path_335" data-name="Path 335"
              d="M800.565,678.5l-2.328,3.423s-.906,6.014-15.749-1.44-363.6-154.614-363.6-154.614l-2.364-7.1Z"
              transform="translate(336.419 -6.962)" opacity="0.1"/>
        <path id="Path_336" data-name="Path 336"
              d="M606.917,588.973c-3.541-.58-7.472-.3-10.225,2a8.413,8.413,0,0,0-2.934,5.579c-.236,2.509,1.223,5.488,3.74,5.678a11.909,11.909,0,0,0,1.811-.118,27.072,27.072,0,0,1,4.746.4,19.372,19.372,0,0,0,16.51-6.666c2.165-2.717-.688-3.894-3.242-4.438C613.827,590.667,610.412,589.535,606.917,588.973Z"
              transform="translate(319.701 -13.56)" fill="#fbbebe"/>
        <path id="Path_337" data-name="Path 337"
              d="M674.809,676.921l2.246,15.958a24.3,24.3,0,0,1,.344,4.99c-.263,3.759-2.264,7.128-3.7,10.605s-2.318,7.644-.408,10.868c.589,1.005,1.413,1.866,1.947,2.907a11.7,11.7,0,0,1,.906,5.1l.616,22.641a142.464,142.464,0,0,0,20.993-.118,1.168,1.168,0,0,0,.761-.235,1.232,1.232,0,0,0,.263-.824c.308-5.3-.616-10.605-.317-15.9.109-1.938.38-3.867.417-5.814.109-7.888-3.786-15.614-2.608-23.411a51.625,51.625,0,0,1,1.449-5.823c3.722-13.585,2.934-27.858,2.11-41.887a.986.986,0,0,0-.181-.634.96.96,0,0,0-.489-.263,25.766,25.766,0,0,0-23.348,4.438c-.987.8-3.478,1.567-4.13,2.518-.906,1.322.281,2.644.806,4.048a51.529,51.529,0,0,1,2.328,10.841Z"
              transform="translate(312.379 -66.042)" fill="#3f3d56"/>
        <path id="Path_338" data-name="Path 338"
              d="M674.809,676.921l2.246,15.958a24.3,24.3,0,0,1,.344,4.99c-.263,3.759-2.264,7.128-3.7,10.605s-2.318,7.644-.408,10.868c.589,1.005,1.413,1.866,1.947,2.907a11.7,11.7,0,0,1,.906,5.1l.616,22.641a142.464,142.464,0,0,0,20.993-.118,1.168,1.168,0,0,0,.761-.235,1.232,1.232,0,0,0,.263-.824c.308-5.3-.616-10.605-.317-15.9.109-1.938.38-3.867.417-5.814.109-7.888-3.786-15.614-2.608-23.411a51.625,51.625,0,0,1,1.449-5.823c3.722-13.585,2.934-27.858,2.11-41.887a.986.986,0,0,0-.181-.634.96.96,0,0,0-.489-.263,25.766,25.766,0,0,0-23.348,4.438c-.987.8-3.478,1.567-4.13,2.518-.906,1.322.281,2.644.806,4.048a51.529,51.529,0,0,1,2.328,10.841Z"
              transform="translate(312.379 -18.971)" fill="#3f3d56"/>
        <path id="Path_339" data-name="Path 339"
              d="M718.032,671.536c-1.06,2.2-2.481,4.247-3.115,6.611-1.648,6.24,2.617,12.679,2.11,19.073-.163,2.02-.788,3.985-.833,6s.7,4.266,2.491,5.2c1.2.616,2.717.552,3.849,1.259,1.911,1.168,2.128,3.822,1.938,6.05s-.507,4.719.906,6.457c1.078,1.349,2.925,1.875,4.085,3.152a15.545,15.545,0,0,1,1.748,2.952c1.73,3.025,4.891,4.873,7.481,7.245s4.782,5.851,3.623,9.138c-.851,2.409-3.242,3.894-5.543,5.026a58.807,58.807,0,0,1-13.2,4.664,3.187,3.187,0,0,1-1.512.082,3.233,3.233,0,0,1-1.322-.906c-2.672-2.617-5.434-5.362-6.666-8.885a9.122,9.122,0,0,0-1.014-2.427c-1.413-1.984-4.392-1.911-6.4-3.279-2.355-1.6-2.925-4.782-4.465-7.182s-3.795-3.831-5.434-5.941c-2.771-3.514-3.451-8.205-5.434-12.217-.842-1.7-1.92-3.3-2.59-5.072a27.7,27.7,0,0,1-1.241-6.557c-1.277-10.578-4.528-21.229-2.481-31.7.453-2.3,1.15-4.528,1.44-6.9.5-4.1-.29-8.3.317-12.4a3.415,3.415,0,0,1,1.367-2.636,3.623,3.623,0,0,1,1.558-.317,106.19,106.19,0,0,1,16.1.362c2.717.263,5.76.815,7.39,3.034,1.386,1.9,1.313,4.447,1.757,6.756.552,2.844,1.992,4.392,3.5,6.62S719.146,669.236,718.032,671.536Z"
              transform="translate(311.152 -19.142)" fill="#3f3d56"/>
        <path id="Path_340" data-name="Path 340"
              d="M692.947,754.868c1.431,0,3.016-.091,4.121.815,1.377,1.132,1.395,3.206,1.177,4.972a74.632,74.632,0,0,1-3.876,14.491l-4.818,14.137a33.2,33.2,0,0,0-1.685,6.231c-.471,3.623.254,7.245.344,10.868,0,1.811-.118,3.822-1.25,5.28-2.047,2.635-6.041,2.328-9.328,1.811l-16.039-2.717a19.071,19.071,0,0,1-3.967-.969,27.732,27.732,0,0,1-3.849-2.165,59.235,59.235,0,0,0-9.962-4.528c-1.5-.561-3.188-1.277-3.731-2.789-.643-1.811.788-3.8,2.563-4.528s3.758-.543,5.678-.489a42.57,42.57,0,0,0,13.947-1.884,8.822,8.822,0,0,0,3.677-1.9,9.058,9.058,0,0,0,2.119-4.266,63.549,63.549,0,0,0,2.427-14.491c.19-3.623.063-7.245.208-10.868.091-2.146-.118-9.057,1.766-10.533,1.44-1.1,7.363,1.947,9.31,2.391A45.282,45.282,0,0,0,692.947,754.868Z"
              transform="translate(315.343 -28.88)" fill="#2f2e41"/>
        <path id="Path_341" data-name="Path 341"
              d="M753.029,764.775c1.567,5.189,1.811,10.678,2.826,16.012s2.808,10.777,6.765,14.491a8.939,8.939,0,0,1,1.965,2.174,4.583,4.583,0,0,1-.679,4.737,11.889,11.889,0,0,1-3.976,3.052c-10.225,5.579-21.736,8.4-33.337,9.79a14.045,14.045,0,0,1-6.177-.226c-1.974-.67-3.722-2.445-3.686-4.528a2.31,2.31,0,0,1,.543-1.567,3.383,3.383,0,0,1,1.223-.716c4.275-1.757,8.613-3.668,11.918-6.91s5.38-8.151,4.1-12.552a24.832,24.832,0,0,0-3.052-5.805,98.1,98.1,0,0,1-4.528-8.776l-3.985-8.359a21.924,21.924,0,0,1-2.545-7.662,36.769,36.769,0,0,0,14.69-2.355,23.1,23.1,0,0,0,6.041-3.623c1.54-1.286,2.943-3.686,5.017-2.011,1.666,1.34,2.717,5.117,3.7,7.028A51.611,51.611,0,0,1,753.029,764.775Z"
              transform="translate(308.098 -28.716)" fill="#2f2e41"/>
        <path id="Path_342" data-name="Path 342"
              d="M690.417,536.517c.4,3.478,3.767,5.769,6.983,7.146l-20.35,6.494c1.313-2.518.254-5.6-1.051-8.151a46.1,46.1,0,0,0-3.623-5.805c-.2-.281-.426-.634-.281-.96a1.015,1.015,0,0,1,.571-.444c4.184-1.866,8.495-3.795,13.069-4.474,1.322-.19,3.822-.715,4.809.625S690.227,534.914,690.417,536.517Z"
              transform="translate(312.313 -8.027)" fill="#fbbebe"/>
        <path id="Path_343" data-name="Path 343"
              d="M690.417,536.517c.4,3.478,3.767,5.769,6.983,7.146l-20.35,6.494c1.313-2.518.254-5.6-1.051-8.151a46.1,46.1,0,0,0-3.623-5.805c-.2-.281-.426-.634-.281-.96a1.015,1.015,0,0,1,.571-.444c4.184-1.866,8.495-3.795,13.069-4.474,1.322-.19,3.822-.715,4.809.625S690.227,534.914,690.417,536.517Z"
              transform="translate(312.313 -8.027)" opacity="0.1"/>
        <circle id="Ellipse_41" data-name="Ellipse 41" cx="15.958" cy="15.958" r="15.958"
                transform="translate(974.944 499.392)" fill="#fbbebe"/>
        <path id="Path_344" data-name="Path 344"
              d="M663.858,656.009c1.549,1.857,4.275,2.219,6.657,1.811,5.57-.906,10.125-5.008,15.577-6.485,6.684-1.811,13.757.516,20.069,3.369s12.589,6.34,19.49,6.829c-6.24-13.911-2.672-30.648-8.64-44.676-1.458-3.432-3.5-6.738-3.822-10.451-.408-4.61,1.893-9.057,2.246-13.639.326-4.084-.906-8.151-2.083-12.045l-4.365-14.346c-1.63-5.352-3.306-10.8-6.466-15.4-1.168-1.694-1.521-5.126-3.3-6.149-3.876-2.237-9.754.58-13.956.734s-8.033,3.143-10.488,6.521c-2.6,3.568-4.076,7.816-5.434,12.018a114.253,114.253,0,0,0-4.827,19.227c-.136.978-.254,1.956-.344,2.943-.906,9.3.417,18.657.489,28v.063c.091,11.855-1.811,23.638-2.165,35.484C662.463,651.988,662.517,654.352,663.858,656.009Z"
              transform="translate(313.214 -9.339)" fill="#2f2e41"/>
        <path id="Path_345" data-name="Path 345"
              d="M664.837,615.264a20.436,20.436,0,0,0,8.377-5.017,35.028,35.028,0,0,0,5.561-6.34,45.159,45.159,0,0,0,4.791-10.026,117.155,117.155,0,0,0,6.34-29.226c.235-2.717.308-5.633-1.313-7.789a6.557,6.557,0,0,0-7.925-1.92c-2.137,1.042-3.523,3.152-4.809,5.171a66.786,66.786,0,0,0-6.747,12.516c-.724,1.974-1.259,4-1.965,5.986a55.226,55.226,0,0,1-2.482,5.733c-.136.978-.254,1.956-.344,2.943C663.478,596.6,664.764,605.917,664.837,615.264Z"
              transform="translate(313.069 11.35)" opacity="0.1"/>
        <path id="Path_346" data-name="Path 346"
              d="M684.091,554.935c1.621,2.155,1.549,5.1,1.322,7.78a116.99,116.99,0,0,1-6.34,29.226,44.77,44.77,0,0,1-4.791,10.107,35.388,35.388,0,0,1-5.561,6.34c-3.079,2.807-6.829,5.316-11,5.352a20.978,20.978,0,0,1-6.847-1.494l-34.008-11.574c-.344-1.938,1.023-4.2,1.667-6.068l1.811-5.371c.516-1.485,1.114-3.088,2.463-3.894s3.487.3,4.61,1.2,1.974,2.074,3.079,2.989c2.092,1.739,4.854,2.391,7.517,2.989l7.635,1.712a31.879,31.879,0,0,0,8.495,1.132c2.128-6.5,6.177-12.226,8.468-18.675.706-1.974,1.241-4.012,1.974-5.986,1.63-4.456,4.2-8.5,6.747-12.516,1.277-2.011,2.663-4.121,4.809-5.171A6.548,6.548,0,0,1,684.091,554.935Z"
              transform="translate(317.524 -10.133)" fill="#2f2e41"/>
        <path id="Path_347" data-name="Path 347"
              d="M682.54,523.935a8.05,8.05,0,0,0-.96-2.989,2.509,2.509,0,0,0-2.717-1.2c-1.594.5-2.128,2.961-3.795,3.043-1.123.054-1.929-1.087-2.282-2.155s-.543-2.291-1.386-3.043a5.165,5.165,0,0,0-1.974-.906c-3.867-1.223-7.861-3.478-9.147-7.327a4.383,4.383,0,0,1-.208-2.454c.589-2.436,3.623-3.17,5.932-4.048s4.528-2.382,6.792-3.523,4.891-1.947,7.381-1.368a38.454,38.454,0,0,1,3.722,1.386c3.749,1.3,8.341.7,11.248,3.405a11.62,11.62,0,0,1,2.717,4.746c2.029,5.633,3.315,12.317-.045,17.262-2.074,3.052-4.085,6.539-8.069,6.91C685.112,532.068,683.274,527.866,682.54,523.935Z"
              transform="translate(313.451 -4.981)" fill="#2f2e41"/>
        <g id="Group_11" data-name="Group 11" transform="translate(973.47 498.93)" opacity="0.1">
            <path id="Path_348" data-name="Path 348"
                  d="M675.462,519.358c-.353-1.069-.543-2.291-1.377-3.043a5.163,5.163,0,0,0-1.974-.906c-3.876-1.223-7.861-3.478-9.156-7.327a4.466,4.466,0,0,1-.2-2.454,3.07,3.07,0,0,1,.48-1.078c-1.476.643-2.762,1.494-3.125,3a4.384,4.384,0,0,0,.208,2.454c1.286,3.849,5.28,6.1,9.147,7.327a5.164,5.164,0,0,1,1.974.906c.842.752,1.023,1.965,1.386,3.043s1.159,2.21,2.282,2.155,1.667-1.078,2.382-1.938A2.882,2.882,0,0,1,675.462,519.358Z"
                  transform="translate(-660.023 -504.55)"/>
            <path id="Path_349" data-name="Path 349"
                  d="M694.449,531.814c-4.655.426-6.494-3.813-7.245-7.716a7.88,7.88,0,0,0-.906-2.989,2.518,2.518,0,0,0-2.717-1.2,4.818,4.818,0,0,0-2,1.811,2.717,2.717,0,0,1,2.047,1.268,8.05,8.05,0,0,1,.96,2.989c.733,3.9,2.572,8.151,7.245,7.716a7.471,7.471,0,0,0,4.782-2.482A6.752,6.752,0,0,1,694.449,531.814Z"
                  transform="translate(-662.057 -505.994)"/>
        </g>
        <path id="Path_331" data-name="Path 331"
              d="M442.7,438.98c-7.164,7.155-8.024,10.306-12.326,11.728s-19.78,9.437-14.916,18.322l13.078,8.64.38.254,2,6.014-19.78,35.212s-32.6-14.907-35.8,7.146-1.168,28.076-2.029,39.849.281,15.179-2.59,15.179-4-7.734-4-7.734-.181-.353-.5-1.014c-4.266-8.866-33.22-73.956,13.159-118.7,0,0,21.482-1.413,26.654-26.047,3.568-17.026,16.048-15.559,24.344-12.091a27.514,27.514,0,0,1,7.445,4.374,36.661,36.661,0,0,1,5.334,6.34C445.513,430.186,446.8,434.868,442.7,438.98Z"
              transform="translate(342.376 2.966)" fill="#d0d2d5" stroke="#707070" stroke-width="1"/>
        <g id="Group_1" data-name="Group 1" transform="translate(668.939 247.597)">
            <path id="Path_1" data-name="Path 1"
                  d="M492.712,324.894c-33.11,0-56.883,21.243-56.883,70.809,0,56.175,23.773,71.045,56.883,71.045s58.3-16.286,58.3-71.045C551.011,337.168,525.822,324.894,492.712,324.894Zm.217,123.207c-22.933,0-34.914-13.454-34.914-52.362,0-34.331,12.471-52.435,35.4-52.435s35.4,11.892,35.4,52.435c0,37.927-12.962,52.362-35.895,52.362Z"
                  transform="translate(-292.217 -320.645)" fill="#046b00"/>
            <path id="Path_2" data-name="Path 2"
                  d="M220.531,436.461h-13.69V396.148a8.073,8.073,0,0,0-8.073-8.073H195.56a8.073,8.073,0,0,0-8.073,8.073v40.313H148.873A4.609,4.609,0,0,1,144.8,429.7l40.868-77.351a8.073,8.073,0,0,0-3.691-11.072l-2.413-1.139A8.073,8.073,0,0,0,169,343.631l-49.845,93.243a10.947,10.947,0,0,0-1.293,5.161h0a10.947,10.947,0,0,0,10.947,10.947h58.681v25.491a9.677,9.677,0,0,0,9.677,9.677h0a9.677,9.677,0,0,0,9.677-9.677V452.983h13.69a8.261,8.261,0,0,0,8.261-8.261h0a8.261,8.261,0,0,0-8.261-8.261Z"
                  transform="translate(-96.745 -329.54)" fill="#7dc02f"/>
            <path id="Path_3" data-name="Path 3"
                  d="M878.527,436.461h-13.69V396.148a8.073,8.073,0,0,0-8.072-8.073h-3.208a8.073,8.073,0,0,0-8.073,8.073v40.313H806.87a4.609,4.609,0,0,1-4.075-6.762l40.869-77.351a8.073,8.073,0,0,0-3.691-11.072l-2.413-1.139a8.073,8.073,0,0,0-10.567,3.494l-49.844,93.243a10.947,10.947,0,0,0-1.293,5.161h0A10.947,10.947,0,0,0,786.8,452.983h58.681v25.491a9.677,9.677,0,0,0,9.677,9.677h0a9.677,9.677,0,0,0,9.677-9.677V452.983h13.69a8.261,8.261,0,0,0,8.261-8.261h0a8.261,8.261,0,0,0-8.261-8.261Z"
                  transform="translate(-501.247 -329.54)" fill="#7dc02f"/>
            <path id="Path_4" data-name="Path 4"
                  d="M230.334,424.208h-13.69V383.9a8.073,8.073,0,0,0-8.073-8.073h-3.208a8.073,8.073,0,0,0-8.073,8.073v40.312H158.675a4.609,4.609,0,0,1-4.075-6.762l40.869-77.351a8.073,8.073,0,0,0-3.691-11.072l-2.413-1.139a8.073,8.073,0,0,0-10.567,3.494l-49.844,93.243a10.947,10.947,0,0,0-1.293,5.161h0a10.947,10.947,0,0,0,10.947,10.947h58.681v25.491a9.677,9.677,0,0,0,9.677,9.677h0a9.677,9.677,0,0,0,9.677-9.677V440.73h13.69a8.261,8.261,0,0,0,8.261-8.261h0a8.261,8.261,0,0,0-8.261-8.261Z"
                  transform="translate(-102.771 -322.007)" fill="none" stroke="#3f3d56" stroke-miterlimit="10"
                  stroke-width="1"/>
            <path id="Path_5" data-name="Path 5"
                  d="M896.906,424.208h-13.69V383.9a8.073,8.073,0,0,0-8.073-8.073h-3.207a8.073,8.073,0,0,0-8.073,8.073v40.312H825.249a4.609,4.609,0,0,1-4.075-6.762l40.869-77.351a8.073,8.073,0,0,0-3.691-11.072l-2.413-1.139a8.073,8.073,0,0,0-10.567,3.494l-49.845,93.243a10.948,10.948,0,0,0-1.293,5.161h0a10.947,10.947,0,0,0,10.947,10.947h58.681v25.491a9.677,9.677,0,0,0,9.677,9.677h0a9.677,9.677,0,0,0,9.677-9.677V440.73h13.69a8.261,8.261,0,0,0,8.261-8.261h0a8.261,8.261,0,0,0-8.261-8.261Z"
                  transform="translate(-512.545 -322.007)" fill="none" stroke="#3f3d56" stroke-miterlimit="10"
                  stroke-width="1"/>
            <path id="Path_6" data-name="Path 6"
                  d="M512.317,313.866c-33.11,0-56.883,21.243-56.883,70.809,0,56.175,23.773,71.045,56.883,71.045s58.3-16.286,58.3-71.045C570.616,326.14,545.427,313.866,512.317,313.866Zm.218,123.207c-22.933,0-34.914-13.454-34.914-52.362,0-34.331,12.471-52.435,35.4-52.435s35.4,11.892,35.4,52.435c0,37.927-12.962,52.362-35.895,52.362Z"
                  transform="translate(-304.269 -313.866)" fill="none" stroke="#3f3d56" stroke-miterlimit="10"
                  stroke-width="1"/>
            <path id="Path_22" data-name="Path 22"
                  d="M1061.493,552.614a8.018,8.018,0,1,0,1.068-15.377l.2,4.127-1.952-3.537a7.988,7.988,0,0,0-4.116,4.516,7.863,7.863,0,0,0-.461,2.169A8.017,8.017,0,0,0,1061.493,552.614Z"
                  transform="translate(-673.595 -451.074)" fill="#008595"/>
            <path id="Path_23" data-name="Path 23"
                  d="M1092.59,589.483c-.689-3.51,2.3-6.621,5.247-8.644s6.4-4.01,7.4-7.442c1.447-4.933-2.863-9.45-6.217-13.346a48.276,48.276,0,0,1-6.366-9.461,13.022,13.022,0,0,1-1.523-4.3,14.843,14.843,0,0,1,1.146-6.448q3.536-10.422,7.562-20.669"
                  transform="translate(-695.03 -440.078)" fill="none" stroke="#3f3d56" stroke-miterlimit="10"
                  stroke-width="1"/>
            <path id="Path_24" data-name="Path 24"
                  d="M1062.343,549.856a8.018,8.018,0,1,0,1.068-15.377l.2,4.127-1.953-3.537a7.987,7.987,0,0,0-4.116,4.516,7.856,7.856,0,0,0-.461,2.169A8.016,8.016,0,0,0,1062.343,549.856Z"
                  transform="translate(-674.117 -449.379)" fill="none" stroke="#3f3d56" stroke-miterlimit="10"
                  stroke-width="1"/>
            <path id="Path_25" data-name="Path 25"
                  d="M1091.682,507.045a8.009,8.009,0,0,1,5.771-5.084l.66,3.923,1.224-4.121a8.017,8.017,0,1,1-7.655,5.282Z"
                  transform="translate(-695.105 -429.376)" fill="#008595"/>
            <path id="Path_26" data-name="Path 26"
                  d="M1092.822,503.367a8.008,8.008,0,0,1,5.771-5.084l.66,3.923,1.224-4.121a8.017,8.017,0,1,1-7.655,5.282Z"
                  transform="translate(-695.805 -427.114)" fill="none" stroke="#3f3d56" stroke-miterlimit="10"
                  stroke-width="1"/>
            <path id="Path_27" data-name="Path 27"
                  d="M1099.606,600.665a8.017,8.017,0,0,0,7.1-14.263l-.941,3.167-.667-3.97-.02-.008a8.018,8.018,0,1,0-5.468,15.074Z"
                  transform="translate(-697.022 -480.612)" fill="#008595"/>
            <path id="Path_28" data-name="Path 28"
                  d="M1100.606,596.94a8.017,8.017,0,0,0,7.1-14.263l-.941,3.167-.667-3.97-.02-.008a8.018,8.018,0,1,0-5.468,15.074Z"
                  transform="translate(-697.637 -478.322)" fill="none" stroke="#3f3d56" stroke-miterlimit="10"
                  stroke-width="1"/>
            <path id="Path_29" data-name="Path 29"
                  d="M1086.183,645.049a8.014,8.014,0,1,0,1.545-6.279l3.572,5.377-4.881-2.854A7.94,7.94,0,0,0,1086.183,645.049Z"
                  transform="translate(-691.945 -511.681)" fill="#008595"/>
            <path id="Path_30" data-name="Path 30"
                  d="M1087.034,642.292a8.014,8.014,0,1,0,1.545-6.279l3.572,5.377-4.881-2.854A7.941,7.941,0,0,0,1087.034,642.292Z"
                  transform="translate(-692.467 -509.986)" fill="none" stroke="#3f3d56" stroke-miterlimit="10"
                  stroke-width="1"/>
            <path id="Path_31" data-name="Path 31"
                  d="M66.524,611.826a5.268,5.268,0,1,0,.7-10.1l.132,2.711-1.283-2.324a5.248,5.248,0,0,0-2.7,2.967,5.166,5.166,0,0,0-.3,1.425A5.267,5.267,0,0,0,66.524,611.826Z"
                  transform="translate(-63.055 -490.754)" fill="#008595"/>
            <path id="Path_32" data-name="Path 32"
                  d="M86.954,636.049c-.453-2.306,1.509-4.35,3.448-5.679s4.2-2.634,4.864-4.889c.95-3.241-1.881-6.209-4.084-8.769A31.715,31.715,0,0,1,87,610.5a8.556,8.556,0,0,1-1-2.826,9.755,9.755,0,0,1,.753-4.236q2.323-6.847,4.968-13.58"
                  transform="translate(-77.137 -483.529)" fill="none" stroke="#3f3d56" stroke-miterlimit="10"
                  stroke-width="1"/>
            <path id="Path_33" data-name="Path 33"
                  d="M67.088,610.014a5.268,5.268,0,1,0,.7-10.1l.132,2.711L66.638,600.3a5.248,5.248,0,0,0-2.7,2.967,5.166,5.166,0,0,0-.3,1.425A5.267,5.267,0,0,0,67.088,610.014Z"
                  transform="translate(-63.401 -489.64)" fill="none" stroke="#3f3d56" stroke-miterlimit="10"
                  stroke-width="1"/>
            <path id="Path_34" data-name="Path 34"
                  d="M86.362,581.886a5.262,5.262,0,0,1,3.792-3.341l.434,2.578.8-2.707a5.267,5.267,0,1,1-5.03,3.47Z"
                  transform="translate(-77.188 -476.497)" fill="#008595"/>
            <path id="Path_35" data-name="Path 35"
                  d="M87.113,579.47a5.262,5.262,0,0,1,3.792-3.341l.434,2.578.8-2.707a5.267,5.267,0,1,1-5.03,3.47Z"
                  transform="translate(-77.65 -475.012)" fill="none" stroke="#3f3d56" stroke-miterlimit="10"
                  stroke-width="1"/>
            <path id="Path_36" data-name="Path 36"
                  d="M91.57,643.4a5.267,5.267,0,0,0,4.662-9.371l-.618,2.08-.438-2.608-.013-.005a5.268,5.268,0,0,0-3.593,9.9Z"
                  transform="translate(-78.449 -510.161)" fill="#008595"/>
            <path id="Path_37" data-name="Path 37"
                  d="M92.221,640.949a5.267,5.267,0,0,0,4.662-9.371l-.618,2.081-.438-2.608-.013-.005a5.268,5.268,0,1,0-3.593,9.9Z"
                  transform="translate(-78.849 -508.656)" fill="none" stroke="#3f3d56" stroke-miterlimit="10"
                  stroke-width="1"/>
            <path id="Path_38" data-name="Path 38"
                  d="M82.747,672.557a5.265,5.265,0,1,0,1.015-4.125l2.347,3.533L82.9,670.09A5.218,5.218,0,0,0,82.747,672.557Z"
                  transform="translate(-75.111 -530.573)" fill="#008595"/>
            <path id="Path_39" data-name="Path 39"
                  d="M83.31,670.745a5.265,5.265,0,1,0,1.015-4.125l2.347,3.533-3.207-1.875A5.219,5.219,0,0,0,83.31,670.745Z"
                  transform="translate(-75.457 -529.459)" fill="none" stroke="#3f3d56" stroke-miterlimit="10"
                  stroke-width="1"/>
        </g>
    </g>
</svg>
